<?xml version="1.0" encoding="UTF-8" standalone="no"?>
<!DOCTYPE svg PUBLIC "-//W3C//DTD SVG 1.1//EN"
 "http://www.w3.org/Graphics/SVG/1.1/DTD/svg11.dtd">
<!-- Generated by graphviz version 14.1.2 (20260124.0452)
 -->
<!-- Title: G Pages: 1 -->
<svg width="1258pt" height="758pt"
 viewBox="0.00 0.00 1258.00 758.00" xmlns="http://www.w3.org/2000/svg" xmlns:xlink="http://www.w3.org/1999/xlink">
<g id="graph0" class="graph" transform="scale(1 1) rotate(0) translate(4 753.65)">
<title>G</title><style>.edge>path:hover{stroke-width:8}</style>
<polygon fill="white" stroke="none" points="-4,4 -4,-753.65 1254.05,-753.65 1254.05,4 -4,4"/>
<!-- flow_state -->
<g id="node1" class="node">
<title>flow_state</title><style>.edge>path:hover{stroke-width:8}</style>
<polygon fill="blue" stroke="black" points="533.5,-38.88 472.5,-38.88 472.5,-2.88 533.5,-2.88 533.5,-38.88"/>
<text xml:space="preserve" text-anchor="middle" x="503" y="-17" font-family="Helvetica,sans-Serif" font-size="10.00" fill="white">flow_state</text>
</g>
<!-- flow_state__version -->
<g id="node2" class="node">
<title>flow_state__version</title><style>.edge>path:hover{stroke-width:8}</style>
<ellipse fill="#ce3b3b" stroke="black" cx="237" cy="-99.32" rx="45.25" ry="21.57"/>
<text xml:space="preserve" text-anchor="middle" x="237" y="-101.07" font-family="Helvetica,sans-Serif" font-size="10.00" fill="#ffffff">flow_state.</text>
<text xml:space="preserve" text-anchor="middle" x="237" y="-89.82" font-family="Helvetica,sans-Serif" font-size="10.00" fill="#ffffff">_version</text>
</g>
<!-- flow_state__version&#45;&gt;flow_state -->
<g id="edge1" class="edge">
<title>flow_state__version&#45;&gt;flow_state</title><style>.edge>path:hover{stroke-width:8}</style>
<path fill="none" stroke="black" d="M272.43,-85.5C280.16,-82.84 288.33,-80.12 296,-77.75 352.85,-60.19 419.41,-42.78 461.39,-32.17"/>
<polygon fill="#ce3b3b" stroke="black" points="461.98,-35.63 470.82,-29.8 460.27,-28.84 461.98,-35.63"/>
</g>
<!-- flow_state_cli -->
<g id="node9" class="node">
<title>flow_state_cli</title><style>.edge>path:hover{stroke-width:8}</style>
<ellipse fill="#8f3d3d" stroke="black" cx="126" cy="-20.88" rx="43.64" ry="18"/>
<text xml:space="preserve" text-anchor="middle" x="126" y="-17" font-family="Helvetica,sans-Serif" font-size="10.00" fill="#ffffff">flow_state.cli</text>
</g>
<!-- flow_state__version&#45;&gt;flow_state_cli -->
<g id="edge2" class="edge">
<title>flow_state__version&#45;&gt;flow_state_cli</title><style>.edge>path:hover{stroke-width:8}</style>
<path fill="none" stroke="black" d="M211.81,-80.97C195.51,-69.75 174.18,-55.06 156.87,-43.13"/>
<polygon fill="#ce3b3b" stroke="black" points="159.18,-40.48 148.96,-37.69 155.21,-46.24 159.18,-40.48"/>
</g>
<!-- flow_state_atmosphere -->
<g id="node3" class="node">
<title>flow_state_atmosphere</title><style>.edge>path:hover{stroke-width:8}</style>
<polygon fill="blue" stroke="black" points="490.5,-499.1 423.5,-499.1 423.5,-463.1 490.5,-463.1 490.5,-499.1"/>
<text xml:space="preserve" text-anchor="middle" x="457" y="-482.85" font-family="Helvetica,sans-Serif" font-size="10.00" fill="white">flow_state.</text>
<text xml:space="preserve" text-anchor="middle" x="457" y="-471.6" font-family="Helvetica,sans-Serif" font-size="10.00" fill="white">atmosphere</text>
</g>
<!-- flow_state_atmosphere&#45;&gt;flow_state -->
<g id="edge3" class="edge">
<title>flow_state_atmosphere&#45;&gt;flow_state</title><style>.edge>path:hover{stroke-width:8}</style>
<path fill="none" stroke="black" d="M462,-426.1C511.55,-363.17 1124.92,-446.3 1182,-390.1 1273.97,-299.55 1264.39,-212.75 1201,-100.32"/>
</g>
<!-- flow_state_io_read_config -->
<g id="node18" class="node">
<title>flow_state_io_read_config</title><style>.edge>path:hover{stroke-width:8}</style>
<polygon fill="blue" stroke="black" points="323.12,-381.46 256.88,-381.46 256.88,-339.71 323.12,-339.71 323.12,-381.46"/>
<text xml:space="preserve" text-anchor="middle" x="290" y="-367.96" font-family="Helvetica,sans-Serif" font-size="10.00" fill="white">flow_state.</text>
<text xml:space="preserve" text-anchor="middle" x="290" y="-356.71" font-family="Helvetica,sans-Serif" font-size="10.00" fill="white">io.</text>
<text xml:space="preserve" text-anchor="middle" x="290" y="-345.46" font-family="Helvetica,sans-Serif" font-size="10.00" fill="white">read_config</text>
</g>
<!-- flow_state_atmosphere&#45;&gt;flow_state_io_read_config -->
<g id="edge4" class="edge">
<title>flow_state_atmosphere&#45;&gt;flow_state_io_read_config</title><style>.edge>path:hover{stroke-width:8}</style>
<path fill="none" stroke="black" d="M454.17,-462.61C453.34,-451.35 454.26,-437.01 462,-427.1"/>
<path fill="none" stroke="black" d="M462,-426.1C479.31,-403.94 391.15,-381.69 334.62,-370"/>
<polygon fill="blue" stroke="black" points="335.41,-366.59 324.91,-368.03 334.02,-373.45 335.41,-366.59"/>
</g>
<!-- flow_state_solvers -->
<g id="node23" class="node">
<title>flow_state_solvers</title><style>.edge>path:hover{stroke-width:8}</style>
<polygon fill="blue" stroke="black" points="642,-117.32 578,-117.32 578,-81.32 642,-81.32 642,-117.32"/>
<text xml:space="preserve" text-anchor="middle" x="610" y="-101.07" font-family="Helvetica,sans-Serif" font-size="10.00" fill="white">flow_state.</text>
<text xml:space="preserve" text-anchor="middle" x="610" y="-89.82" font-family="Helvetica,sans-Serif" font-size="10.00" fill="white">solvers</text>
</g>
<!-- flow_state_atmosphere&#45;&gt;flow_state_solvers -->
<g id="edge5" class="edge">
<title>flow_state_atmosphere&#45;&gt;flow_state_solvers</title><style>.edge>path:hover{stroke-width:8}</style>
<path fill="none" stroke="black" d="M462,-426.1C514.26,-359.19 432.08,-305.41 481,-236.02 502.53,-205.47 526.88,-222.15 557,-200.02 567.03,-192.65 567.74,-188.76 576,-179.45"/>
</g>
<!-- flow_state_atmosphere_CIRA86 -->
<g id="node4" class="node">
<title>flow_state_atmosphere_CIRA86</title><style>.edge>path:hover{stroke-width:8}</style>
<polygon fill="blue" stroke="black" points="341,-654.6 271,-654.6 271,-612.85 341,-612.85 341,-654.6"/>
<text xml:space="preserve" text-anchor="middle" x="306" y="-641.1" font-family="Helvetica,sans-Serif" font-size="10.00" fill="white">flow_state.</text>
<text xml:space="preserve" text-anchor="middle" x="306" y="-629.85" font-family="Helvetica,sans-Serif" font-size="10.00" fill="white">atmosphere.</text>
<text xml:space="preserve" text-anchor="middle" x="306" y="-618.6" font-family="Helvetica,sans-Serif" font-size="10.00" fill="white">CIRA86</text>
</g>
<!-- flow_state_atmosphere_CIRA86&#45;&gt;flow_state_io_read_config -->
<g id="edge8" class="edge">
<title>flow_state_atmosphere_CIRA86&#45;&gt;flow_state_io_read_config</title><style>.edge>path:hover{stroke-width:8}</style>
<path fill="none" stroke="black" d="M304.82,-612.79C302.07,-566.19 295.21,-449.82 291.87,-393.33"/>
<polygon fill="blue" stroke="black" points="295.37,-393.21 291.29,-383.43 288.38,-393.62 295.37,-393.21"/>
</g>
<!-- flow_state_atmosphere_cira86 -->
<g id="node5" class="node">
<title>flow_state_atmosphere_cira86</title><style>.edge>path:hover{stroke-width:8}</style>
<polygon fill="blue" stroke="black" points="429,-654.6 359,-654.6 359,-612.85 429,-612.85 429,-654.6"/>
<text xml:space="preserve" text-anchor="middle" x="394" y="-641.1" font-family="Helvetica,sans-Serif" font-size="10.00" fill="white">flow_state.</text>
<text xml:space="preserve" text-anchor="middle" x="394" y="-629.85" font-family="Helvetica,sans-Serif" font-size="10.00" fill="white">atmosphere.</text>
<text xml:space="preserve" text-anchor="middle" x="394" y="-618.6" font-family="Helvetica,sans-Serif" font-size="10.00" fill="white">cira86</text>
</g>
<!-- flow_state_atmosphere_cira86&#45;&gt;flow_state_atmosphere -->
<g id="edge6" class="edge">
<title>flow_state_atmosphere_cira86&#45;&gt;flow_state_atmosphere</title><style>.edge>path:hover{stroke-width:8}</style>
<path fill="none" stroke="black" d="M395.02,-612.37C396.7,-591.96 401.17,-560.07 413,-535.1 417.66,-525.26 424.58,-515.72 431.55,-507.5"/>
<polygon fill="blue" stroke="black" points="433.95,-510.06 438.02,-500.28 428.74,-505.39 433.95,-510.06"/>
</g>
<!-- flow_state_atmosphere_registry -->
<g id="node7" class="node">
<title>flow_state_atmosphere_registry</title><style>.edge>path:hover{stroke-width:8}</style>
<polygon fill="blue" stroke="black" points="492,-576.85 422,-576.85 422,-535.1 492,-535.1 492,-576.85"/>
<text xml:space="preserve" text-anchor="middle" x="457" y="-563.35" font-family="Helvetica,sans-Serif" font-size="10.00" fill="white">flow_state.</text>
<text xml:space="preserve" text-anchor="middle" x="457" y="-552.1" font-family="Helvetica,sans-Serif" font-size="10.00" fill="white">atmosphere.</text>
<text xml:space="preserve" text-anchor="middle" x="457" y="-540.85" font-family="Helvetica,sans-Serif" font-size="10.00" fill="white">registry</text>
</g>
<!-- flow_state_atmosphere_cira86&#45;&gt;flow_state_atmosphere_registry -->
<g id="edge7" class="edge">
<title>flow_state_atmosphere_cira86&#45;&gt;flow_state_atmosphere_registry</title><style>.edge>path:hover{stroke-width:8}</style>
<path fill="none" stroke="black" d="M410.88,-612.43C417.59,-604.36 425.44,-594.93 432.73,-586.16"/>
<polygon fill="blue" stroke="black" points="435.4,-588.42 439.1,-578.5 430.02,-583.95 435.4,-588.42"/>
</g>
<!-- flow_state_atmosphere_core -->
<g id="node6" class="node">
<title>flow_state_atmosphere_core</title><style>.edge>path:hover{stroke-width:8}</style>
<ellipse fill="#f31616" stroke="black" cx="457" cy="-720.13" rx="49.5" ry="29.52"/>
<text xml:space="preserve" text-anchor="middle" x="457" y="-727.5" font-family="Helvetica,sans-Serif" font-size="10.00" fill="#ffffff">flow_state.</text>
<text xml:space="preserve" text-anchor="middle" x="457" y="-716.25" font-family="Helvetica,sans-Serif" font-size="10.00" fill="#ffffff">atmosphere.</text>
<text xml:space="preserve" text-anchor="middle" x="457" y="-705" font-family="Helvetica,sans-Serif" font-size="10.00" fill="#ffffff">core</text>
</g>
<!-- flow_state_atmosphere_core&#45;&gt;flow_state_atmosphere -->
<g id="edge9" class="edge">
<title>flow_state_atmosphere_core&#45;&gt;flow_state_atmosphere</title><style>.edge>path:hover{stroke-width:8}</style>
<path fill="none" stroke="black" d="M498.83,-703.81C521.55,-693.36 548.15,-677.27 564,-654.6 589.33,-618.38 597.11,-598.87 583,-556.98"/>
</g>
<!-- flow_state_atmosphere_core&#45;&gt;flow_state_atmosphere_CIRA86 -->
<g id="edge10" class="edge">
<title>flow_state_atmosphere_core&#45;&gt;flow_state_atmosphere_CIRA86</title><style>.edge>path:hover{stroke-width:8}</style>
<path fill="none" stroke="black" d="M421.6,-699.34C400.66,-687.63 373.92,-672.69 351.44,-660.12"/>
<polygon fill="#f31616" stroke="black" points="353.2,-657.1 342.76,-655.28 349.78,-663.21 353.2,-657.1"/>
</g>
<!-- flow_state_atmosphere_core&#45;&gt;flow_state_atmosphere_cira86 -->
<g id="edge11" class="edge">
<title>flow_state_atmosphere_core&#45;&gt;flow_state_atmosphere_cira86</title><style>.edge>path:hover{stroke-width:8}</style>
<path fill="none" stroke="black" d="M437.41,-692.88C430.58,-683.74 422.88,-673.42 415.88,-664.04"/>
<polygon fill="#f31616" stroke="black" points="418.86,-662.19 410.08,-656.27 413.26,-666.37 418.86,-662.19"/>
</g>
<!-- flow_state_atmosphere_core&#45;&gt;flow_state_atmosphere_registry -->
<g id="edge12" class="edge">
<title>flow_state_atmosphere_core&#45;&gt;flow_state_atmosphere_registry</title><style>.edge>path:hover{stroke-width:8}</style>
<path fill="none" stroke="black" d="M457,-690.14C457,-661.48 457,-617.75 457,-588.3"/>
<polygon fill="#f31616" stroke="black" points="460.5,-588.53 457,-578.53 453.5,-588.53 460.5,-588.53"/>
</g>
<!-- flow_state_atmosphere_ussa76 -->
<g id="node8" class="node">
<title>flow_state_atmosphere_ussa76</title><style>.edge>path:hover{stroke-width:8}</style>
<polygon fill="blue" stroke="black" points="555,-654.6 485,-654.6 485,-612.85 555,-612.85 555,-654.6"/>
<text xml:space="preserve" text-anchor="middle" x="520" y="-641.1" font-family="Helvetica,sans-Serif" font-size="10.00" fill="white">flow_state.</text>
<text xml:space="preserve" text-anchor="middle" x="520" y="-629.85" font-family="Helvetica,sans-Serif" font-size="10.00" fill="white">atmosphere.</text>
<text xml:space="preserve" text-anchor="middle" x="520" y="-618.6" font-family="Helvetica,sans-Serif" font-size="10.00" fill="white">ussa76</text>
</g>
<!-- flow_state_atmosphere_core&#45;&gt;flow_state_atmosphere_ussa76 -->
<g id="edge13" class="edge">
<title>flow_state_atmosphere_core&#45;&gt;flow_state_atmosphere_ussa76</title><style>.edge>path:hover{stroke-width:8}</style>
<path fill="none" stroke="black" d="M476.59,-692.88C483.42,-683.74 491.12,-673.42 498.12,-664.04"/>
<polygon fill="#f31616" stroke="black" points="500.74,-666.37 503.92,-656.27 495.14,-662.19 500.74,-666.37"/>
</g>
<!-- flow_state_atmosphere_registry&#45;&gt;flow_state_atmosphere -->
<g id="edge14" class="edge">
<title>flow_state_atmosphere_registry&#45;&gt;flow_state_atmosphere</title><style>.edge>path:hover{stroke-width:8}</style>
<path fill="none" stroke="black" d="M457,-534.68C457,-527.3 457,-518.8 457,-510.83"/>
<polygon fill="blue" stroke="black" points="460.5,-510.85 457,-500.85 453.5,-510.85 460.5,-510.85"/>
</g>
<!-- flow_state_atmosphere_ussa76&#45;&gt;flow_state_atmosphere -->
<g id="edge15" class="edge">
<title>flow_state_atmosphere_ussa76&#45;&gt;flow_state_atmosphere</title><style>.edge>path:hover{stroke-width:8}</style>
<path fill="none" stroke="black" d="M553.86,-612.62C572.45,-598.73 590.37,-578.86 583,-556.98"/>
<path fill="none" stroke="black" d="M583,-554.98C571.38,-520.49 532.96,-501.74 501.57,-491.94"/>
<polygon fill="blue" stroke="black" points="502.84,-488.66 492.27,-489.25 500.9,-495.39 502.84,-488.66"/>
</g>
<!-- flow_state_atmosphere_ussa76&#45;&gt;flow_state_atmosphere_registry -->
<g id="edge16" class="edge">
<title>flow_state_atmosphere_ussa76&#45;&gt;flow_state_atmosphere_registry</title><style>.edge>path:hover{stroke-width:8}</style>
<path fill="none" stroke="black" d="M503.12,-612.43C496.41,-604.36 488.56,-594.93 481.27,-586.16"/>
<polygon fill="blue" stroke="black" points="483.98,-583.95 474.9,-578.5 478.6,-588.42 483.98,-583.95"/>
</g>
<!-- flow_state_core -->
<g id="node10" class="node">
<title>flow_state_core</title><style>.edge>path:hover{stroke-width:8}</style>
<polygon fill="blue" stroke="black" points="402,-196.45 338,-196.45 338,-160.45 402,-160.45 402,-196.45"/>
<text xml:space="preserve" text-anchor="middle" x="370" y="-180.2" font-family="Helvetica,sans-Serif" font-size="10.00" fill="white">flow_state.</text>
<text xml:space="preserve" text-anchor="middle" x="370" y="-168.95" font-family="Helvetica,sans-Serif" font-size="10.00" fill="white">core</text>
</g>
<!-- flow_state_core&#45;&gt;flow_state -->
<g id="edge17" class="edge">
<title>flow_state_core&#45;&gt;flow_state</title><style>.edge>path:hover{stroke-width:8}</style>
<path fill="none" stroke="black" d="M385.18,-160.15C398.03,-145 416.48,-122.08 430,-100.32"/>
<path fill="none" stroke="black" d="M430,-98.32C441.9,-79.16 459.2,-60.78 473.97,-46.85"/>
<polygon fill="blue" stroke="black" points="476.2,-49.55 481.19,-40.21 471.46,-44.4 476.2,-49.55"/>
</g>
<!-- flow_state_io_legacy_dat -->
<g id="node16" class="node">
<title>flow_state_io_legacy_dat</title><style>.edge>path:hover{stroke-width:8}</style>
<polygon fill="blue" stroke="black" points="252,-41.75 188,-41.75 188,0 252,0 252,-41.75"/>
<text xml:space="preserve" text-anchor="middle" x="220" y="-28.25" font-family="Helvetica,sans-Serif" font-size="10.00" fill="white">flow_state.</text>
<text xml:space="preserve" text-anchor="middle" x="220" y="-17" font-family="Helvetica,sans-Serif" font-size="10.00" fill="white">io.</text>
<text xml:space="preserve" text-anchor="middle" x="220" y="-5.75" font-family="Helvetica,sans-Serif" font-size="10.00" fill="white">legacy_dat</text>
</g>
<!-- flow_state_core&#45;&gt;flow_state_io_legacy_dat -->
<g id="edge18" class="edge">
<title>flow_state_core&#45;&gt;flow_state_io_legacy_dat</title><style>.edge>path:hover{stroke-width:8}</style>
<path fill="none" stroke="black" d="M365.65,-160C359.51,-138.43 346.47,-101.63 324,-77.75 319.13,-72.57 288.98,-56.59 262.39,-43.04"/>
<polygon fill="blue" stroke="black" points="264.28,-40.07 253.78,-38.67 261.12,-46.32 264.28,-40.07"/>
</g>
<!-- flow_state_io_print_summary -->
<g id="node17" class="node">
<title>flow_state_io_print_summary</title><style>.edge>path:hover{stroke-width:8}</style>
<polygon fill="blue" stroke="black" points="350.25,-41.75 269.75,-41.75 269.75,0 350.25,0 350.25,-41.75"/>
<text xml:space="preserve" text-anchor="middle" x="310" y="-28.25" font-family="Helvetica,sans-Serif" font-size="10.00" fill="white">flow_state.</text>
<text xml:space="preserve" text-anchor="middle" x="310" y="-17" font-family="Helvetica,sans-Serif" font-size="10.00" fill="white">io.</text>
<text xml:space="preserve" text-anchor="middle" x="310" y="-5.75" font-family="Helvetica,sans-Serif" font-size="10.00" fill="white">print_summary</text>
</g>
<!-- flow_state_core&#45;&gt;flow_state_io_print_summary -->
<g id="edge19" class="edge">
<title>flow_state_core&#45;&gt;flow_state_io_print_summary</title><style>.edge>path:hover{stroke-width:8}</style>
<path fill="none" stroke="black" d="M372.59,-148.56C373.28,-127.97 371.84,-100.1 362,-77.75 357.56,-67.67 350.52,-58.24 343.04,-50.11"/>
<polygon fill="blue" stroke="black" points="369.09,-148.35 372.04,-158.53 376.08,-148.73 369.09,-148.35"/>
<polygon fill="blue" stroke="black" points="345.75,-47.87 336.23,-43.21 340.76,-52.79 345.75,-47.87"/>
</g>
<!-- flow_state_io_write_data -->
<g id="node19" class="node">
<title>flow_state_io_write_data</title><style>.edge>path:hover{stroke-width:8}</style>
<polygon fill="blue" stroke="black" points="64,-41.75 0,-41.75 0,0 64,0 64,-41.75"/>
<text xml:space="preserve" text-anchor="middle" x="32" y="-28.25" font-family="Helvetica,sans-Serif" font-size="10.00" fill="white">flow_state.</text>
<text xml:space="preserve" text-anchor="middle" x="32" y="-17" font-family="Helvetica,sans-Serif" font-size="10.00" fill="white">io.</text>
<text xml:space="preserve" text-anchor="middle" x="32" y="-5.75" font-family="Helvetica,sans-Serif" font-size="10.00" fill="white">write_data</text>
</g>
<!-- flow_state_core&#45;&gt;flow_state_io_write_data -->
<g id="edge20" class="edge">
<title>flow_state_core&#45;&gt;flow_state_io_write_data</title><style>.edge>path:hover{stroke-width:8}</style>
<path fill="none" stroke="black" d="M337.81,-173.73C293.48,-167.62 212.08,-152.8 150,-120.88 114.78,-102.78 80.82,-72.49 58.45,-50.17"/>
<polygon fill="blue" stroke="black" points="61.04,-47.81 51.53,-43.13 56.04,-52.71 61.04,-47.81"/>
</g>
<!-- flow_state_core&#45;&gt;flow_state_solvers -->
<g id="edge21" class="edge">
<title>flow_state_core&#45;&gt;flow_state_solvers</title><style>.edge>path:hover{stroke-width:8}</style>
<path fill="none" stroke="black" d="M402.37,-167.05C444.89,-153.38 519.7,-129.34 566.96,-114.15"/>
<polygon fill="blue" stroke="black" points="567.87,-117.53 576.32,-111.14 565.73,-110.87 567.87,-117.53"/>
</g>
<!-- flow_state_gas -->
<g id="node11" class="node">
<title>flow_state_gas</title><style>.edge>path:hover{stroke-width:8}</style>
<polygon fill="blue" stroke="black" points="683.88,-196.45 604.12,-196.45 604.12,-160.45 683.88,-160.45 683.88,-196.45"/>
<text xml:space="preserve" text-anchor="middle" x="644" y="-174.58" font-family="Helvetica,sans-Serif" font-size="10.00" fill="white">flow_state.gas</text>
</g>
<!-- flow_state_gas&#45;&gt;flow_state_solvers -->
<g id="edge22" class="edge">
<title>flow_state_gas&#45;&gt;flow_state_solvers</title><style>.edge>path:hover{stroke-width:8}</style>
<path fill="none" stroke="black" d="M636.45,-160.33C632.26,-150.81 626.93,-138.73 622.16,-127.91"/>
<polygon fill="blue" stroke="black" points="625.49,-126.78 618.25,-119.04 619.08,-129.6 625.49,-126.78"/>
</g>
<!-- flow_state_gas_equilibrium -->
<g id="node12" class="node">
<title>flow_state_gas_equilibrium</title><style>.edge>path:hover{stroke-width:8}</style>
<ellipse fill="#c24747" stroke="black" cx="644" cy="-265.54" rx="45.25" ry="29.52"/>
<text xml:space="preserve" text-anchor="middle" x="644" y="-272.91" font-family="Helvetica,sans-Serif" font-size="10.00" fill="#ffffff">flow_state.</text>
<text xml:space="preserve" text-anchor="middle" x="644" y="-261.66" font-family="Helvetica,sans-Serif" font-size="10.00" fill="#ffffff">gas.</text>
<text xml:space="preserve" text-anchor="middle" x="644" y="-250.41" font-family="Helvetica,sans-Serif" font-size="10.00" fill="#ffffff">equilibrium</text>
</g>
<!-- flow_state_gas_equilibrium&#45;&gt;flow_state_gas -->
<g id="edge23" class="edge">
<title>flow_state_gas_equilibrium&#45;&gt;flow_state_gas</title><style>.edge>path:hover{stroke-width:8}</style>
<path fill="none" stroke="black" d="M644,-235.73C644,-226.85 644,-217.07 644,-208.19"/>
<polygon fill="#c24747" stroke="black" points="647.5,-208.32 644,-198.32 640.5,-208.32 647.5,-208.32"/>
</g>
<!-- flow_state_gas_park -->
<g id="node13" class="node">
<title>flow_state_gas_park</title><style>.edge>path:hover{stroke-width:8}</style>
<ellipse fill="#c24747" stroke="black" cx="753" cy="-265.54" rx="45.25" ry="29.52"/>
<text xml:space="preserve" text-anchor="middle" x="753" y="-272.91" font-family="Helvetica,sans-Serif" font-size="10.00" fill="#ffffff">flow_state.</text>
<text xml:space="preserve" text-anchor="middle" x="753" y="-261.66" font-family="Helvetica,sans-Serif" font-size="10.00" fill="#ffffff">gas.</text>
<text xml:space="preserve" text-anchor="middle" x="753" y="-250.41" font-family="Helvetica,sans-Serif" font-size="10.00" fill="#ffffff">park</text>
</g>
<!-- flow_state_gas_park&#45;&gt;flow_state_gas -->
<g id="edge24" class="edge">
<title>flow_state_gas_park&#45;&gt;flow_state_gas</title><style>.edge>path:hover{stroke-width:8}</style>
<path fill="none" stroke="black" d="M724.36,-242.18C709.18,-230.33 690.5,-215.75 674.98,-203.63"/>
<polygon fill="#c24747" stroke="black" points="677.48,-201.15 667.45,-197.75 673.18,-206.67 677.48,-201.15"/>
</g>
<!-- flow_state_gas_perfect -->
<g id="node14" class="node">
<title>flow_state_gas_perfect</title><style>.edge>path:hover{stroke-width:8}</style>
<ellipse fill="#c24747" stroke="black" cx="535" cy="-265.54" rx="45.25" ry="29.52"/>
<text xml:space="preserve" text-anchor="middle" x="535" y="-272.91" font-family="Helvetica,sans-Serif" font-size="10.00" fill="#ffffff">flow_state.</text>
<text xml:space="preserve" text-anchor="middle" x="535" y="-261.66" font-family="Helvetica,sans-Serif" font-size="10.00" fill="#ffffff">gas.</text>
<text xml:space="preserve" text-anchor="middle" x="535" y="-250.41" font-family="Helvetica,sans-Serif" font-size="10.00" fill="#ffffff">perfect</text>
</g>
<!-- flow_state_gas_perfect&#45;&gt;flow_state_gas -->
<g id="edge25" class="edge">
<title>flow_state_gas_perfect&#45;&gt;flow_state_gas</title><style>.edge>path:hover{stroke-width:8}</style>
<path fill="none" stroke="black" d="M563.64,-242.18C578.82,-230.33 597.5,-215.75 613.02,-203.63"/>
<polygon fill="#c24747" stroke="black" points="614.82,-206.67 620.55,-197.75 610.52,-201.15 614.82,-206.67"/>
</g>
<!-- flow_state_io -->
<g id="node15" class="node">
<title>flow_state_io</title><style>.edge>path:hover{stroke-width:8}</style>
<polygon fill="blue" stroke="black" points="325.75,-283.54 254.25,-283.54 254.25,-247.54 325.75,-247.54 325.75,-283.54"/>
<text xml:space="preserve" text-anchor="middle" x="290" y="-261.66" font-family="Helvetica,sans-Serif" font-size="10.00" fill="white">flow_state.io</text>
</g>
<!-- flow_state_io&#45;&gt;flow_state -->
<g id="edge26" class="edge">
<title>flow_state_io&#45;&gt;flow_state</title><style>.edge>path:hover{stroke-width:8}</style>
<path fill="none" stroke="black" d="M316.33,-247.1C322.38,-243.3 328.84,-239.41 335,-236.02 367.73,-217.98 388.13,-229.58 411,-200.02 438.6,-164.34 406.19,-138.63 430,-100.32"/>
</g>
<!-- flow_state_io&#45;&gt;flow_state_cli -->
<g id="edge27" class="edge">
<title>flow_state_io&#45;&gt;flow_state_cli</title><style>.edge>path:hover{stroke-width:8}</style>
<path fill="none" stroke="black" d="M275.37,-247.21C243.04,-208.66 168.03,-117.87 164,-100.32"/>
</g>
<!-- flow_state_io&#45;&gt;flow_state_core -->
<g id="edge28" class="edge">
<title>flow_state_io&#45;&gt;flow_state_core</title><style>.edge>path:hover{stroke-width:8}</style>
<path fill="none" stroke="black" d="M306.19,-247.32C317.61,-235.18 333.1,-218.7 345.95,-205.03"/>
<polygon fill="blue" stroke="black" points="348.22,-207.72 352.52,-198.04 343.12,-202.93 348.22,-207.72"/>
</g>
<!-- flow_state_io_legacy_dat&#45;&gt;flow_state_io -->
<g id="edge29" class="edge">
<title>flow_state_io_legacy_dat&#45;&gt;flow_state_io</title><style>.edge>path:hover{stroke-width:8}</style>
<path fill="none" stroke="black" d="M310,-100.32C323.98,-152.77 306.41,-217.28 296.26,-247.46"/>
<path fill="none" stroke="black" d="M252.24,-36.59C271.96,-47.55 295.38,-64.61 306.12,-87.68"/>
<polygon fill="blue" stroke="black" points="302.77,-88.7 309.48,-96.89 309.34,-86.3 302.77,-88.7"/>
</g>
<!-- flow_state_io_print_summary&#45;&gt;flow_state_io -->
<g id="edge31" class="edge">
<title>flow_state_io_print_summary&#45;&gt;flow_state_io</title><style>.edge>path:hover{stroke-width:8}</style>
<path fill="none" stroke="black" d="M307.21,-42.04C306,-54.62 305.33,-71.35 307.7,-87.1"/>
<polygon fill="blue" stroke="black" points="304.26,-87.74 309.7,-96.83 311.12,-86.34 304.26,-87.74"/>
</g>
<!-- flow_state_io_read_config&#45;&gt;flow_state_cli -->
<g id="edge32" class="edge">
<title>flow_state_io_read_config&#45;&gt;flow_state_cli</title><style>.edge>path:hover{stroke-width:8}</style>
<path fill="none" stroke="black" d="M257.25,-339.32C217.96,-312.86 154.15,-262.47 128,-200.02 120.6,-182.33 122.64,-175.29 128,-156.88 136.33,-128.27 170.72,-129.35 164,-100.32"/>
<path fill="none" stroke="black" d="M164,-98.32C159.3,-80.81 150.42,-62.58 142.42,-48.32"/>
<polygon fill="blue" stroke="black" points="145.64,-46.89 137.59,-40.01 139.59,-50.41 145.64,-46.89"/>
</g>
<!-- flow_state_io_read_config&#45;&gt;flow_state_io -->
<g id="edge33" class="edge">
<title>flow_state_io_read_config&#45;&gt;flow_state_io</title><style>.edge>path:hover{stroke-width:8}</style>
<path fill="none" stroke="black" d="M290,-339.39C290,-326.45 290,-309.45 290,-295.13"/>
<polygon fill="blue" stroke="black" points="293.5,-295.39 290,-285.39 286.5,-295.39 293.5,-295.39"/>
</g>
<!-- flow_state_io_write_data&#45;&gt;flow_state_io -->
<g id="edge34" class="edge">
<title>flow_state_io_write_data&#45;&gt;flow_state_io</title><style>.edge>path:hover{stroke-width:8}</style>
<path fill="none" stroke="black" d="M37.81,-42.17C49.23,-78.63 77.95,-155.58 128,-200.02 160.69,-229.03 208.03,-245.84 243.1,-254.99"/>
<polygon fill="blue" stroke="black" points="242.01,-258.32 252.55,-257.33 243.69,-251.53 242.01,-258.32"/>
</g>
<!-- flow_state_isentropic -->
<g id="node20" class="node">
<title>flow_state_isentropic</title><style>.edge>path:hover{stroke-width:8}</style>
<ellipse fill="#ce3b3b" stroke="black" cx="1128" cy="-178.45" rx="45.25" ry="21.57"/>
<text xml:space="preserve" text-anchor="middle" x="1128" y="-180.2" font-family="Helvetica,sans-Serif" font-size="10.00" fill="#ffffff">flow_state.</text>
<text xml:space="preserve" text-anchor="middle" x="1128" y="-168.95" font-family="Helvetica,sans-Serif" font-size="10.00" fill="#ffffff">isentropic</text>
</g>
<!-- flow_state_isentropic&#45;&gt;flow_state -->
<g id="edge35" class="edge">
<title>flow_state_isentropic&#45;&gt;flow_state</title><style>.edge>path:hover{stroke-width:8}</style>
<path fill="none" stroke="black" d="M1201,-98.32C1168.57,-40.8 691.08,-25.89 545.09,-22.66"/>
<polygon fill="#ce3b3b" stroke="black" points="545.16,-19.16 535.09,-22.45 545.02,-26.16 545.16,-19.16"/>
<path fill="none" stroke="black" d="M1159.68,-162.53C1185.31,-148.24 1215.03,-125.21 1201,-100.32"/>
</g>
<!-- flow_state_isentropic&#45;&gt;flow_state_solvers -->
<g id="edge36" class="edge">
<title>flow_state_isentropic&#45;&gt;flow_state_solvers</title><style>.edge>path:hover{stroke-width:8}</style>
<path fill="none" stroke="black" d="M1093.42,-164.02C1085.49,-161.33 1077.03,-158.76 1069,-156.88 919.01,-121.92 736.1,-107.59 653.8,-102.61"/>
<polygon fill="#ce3b3b" stroke="black" points="654.11,-99.12 643.92,-102.03 653.7,-106.11 654.11,-99.12"/>
</g>
<!-- flow_state_math_utils -->
<g id="node21" class="node">
<title>flow_state_math_utils</title><style>.edge>path:hover{stroke-width:8}</style>
<polygon fill="blue" stroke="black" points="894,-196.45 830,-196.45 830,-160.45 894,-160.45 894,-196.45"/>
<text xml:space="preserve" text-anchor="middle" x="862" y="-180.2" font-family="Helvetica,sans-Serif" font-size="10.00" fill="white">flow_state.</text>
<text xml:space="preserve" text-anchor="middle" x="862" y="-168.95" font-family="Helvetica,sans-Serif" font-size="10.00" fill="white">math_utils</text>
</g>
<!-- flow_state_math_utils&#45;&gt;flow_state_solvers -->
<g id="edge37" class="edge">
<title>flow_state_math_utils&#45;&gt;flow_state_solvers</title><style>.edge>path:hover{stroke-width:8}</style>
<path fill="none" stroke="black" d="M829.57,-167.52C784.59,-153.76 703.15,-128.83 653.09,-113.51"/>
<polygon fill="blue" stroke="black" points="654.34,-110.23 643.75,-110.65 652.29,-116.92 654.34,-110.23"/>
</g>
<!-- flow_state_math_utils_bisection -->
<g id="node22" class="node">
<title>flow_state_math_utils_bisection</title><style>.edge>path:hover{stroke-width:8}</style>
<ellipse fill="#c24747" stroke="black" cx="862" cy="-265.54" rx="45.25" ry="29.52"/>
<text xml:space="preserve" text-anchor="middle" x="862" y="-272.91" font-family="Helvetica,sans-Serif" font-size="10.00" fill="#ffffff">flow_state.</text>
<text xml:space="preserve" text-anchor="middle" x="862" y="-261.66" font-family="Helvetica,sans-Serif" font-size="10.00" fill="#ffffff">math_utils.</text>
<text xml:space="preserve" text-anchor="middle" x="862" y="-250.41" font-family="Helvetica,sans-Serif" font-size="10.00" fill="#ffffff">bisection</text>
</g>
<!-- flow_state_math_utils_bisection&#45;&gt;flow_state_math_utils -->
<g id="edge38" class="edge">
<title>flow_state_math_utils_bisection&#45;&gt;flow_state_math_utils</title><style>.edge>path:hover{stroke-width:8}</style>
<path fill="none" stroke="black" d="M862,-235.73C862,-226.85 862,-217.07 862,-208.19"/>
<polygon fill="#c24747" stroke="black" points="865.5,-208.32 862,-198.32 858.5,-208.32 865.5,-208.32"/>
</g>
<!-- flow_state_solvers&#45;&gt;flow_state -->
<g id="edge39" class="edge">
<title>flow_state_solvers&#45;&gt;flow_state</title><style>.edge>path:hover{stroke-width:8}</style>
<path fill="none" stroke="black" d="M585.72,-80.97C571.08,-70.51 552.23,-57.05 536.23,-45.61"/>
<polygon fill="blue" stroke="black" points="538.59,-43 528.42,-40.03 534.52,-48.69 538.59,-43"/>
</g>
<!-- flow_state_solvers&#45;&gt;flow_state_cli -->
<g id="edge40" class="edge">
<title>flow_state_solvers&#45;&gt;flow_state_cli</title><style>.edge>path:hover{stroke-width:8}</style>
<path fill="none" stroke="black" d="M577.63,-96.6C505.23,-92.2 325.08,-78.22 179,-41.75 174.95,-40.74 170.78,-39.51 166.65,-38.18"/>
<polygon fill="blue" stroke="black" points="167.92,-34.91 157.32,-34.94 165.62,-41.53 167.92,-34.91"/>
</g>
<!-- flow_state_transport -->
<g id="node24" class="node">
<title>flow_state_transport</title><style>.edge>path:hover{stroke-width:8}</style>
<polygon fill="blue" stroke="black" points="1027,-196.45 963,-196.45 963,-160.45 1027,-160.45 1027,-196.45"/>
<text xml:space="preserve" text-anchor="middle" x="995" y="-180.2" font-family="Helvetica,sans-Serif" font-size="10.00" fill="white">flow_state.</text>
<text xml:space="preserve" text-anchor="middle" x="995" y="-168.95" font-family="Helvetica,sans-Serif" font-size="10.00" fill="white">transport</text>
</g>
<!-- flow_state_transport&#45;&gt;flow_state_solvers -->
<g id="edge41" class="edge">
<title>flow_state_transport&#45;&gt;flow_state_solvers</title><style>.edge>path:hover{stroke-width:8}</style>
<path fill="none" stroke="black" d="M962.69,-169.99C945.07,-165.98 922.87,-161.02 903,-156.88 814.51,-138.45 710.53,-118.87 653.29,-108.27"/>
<polygon fill="blue" stroke="black" points="654.1,-104.86 643.63,-106.48 652.83,-111.74 654.1,-104.86"/>
</g>
<!-- flow_state_transport_core -->
<g id="node25" class="node">
<title>flow_state_transport_core</title><style>.edge>path:hover{stroke-width:8}</style>
<ellipse fill="#ce3b3b" stroke="black" cx="1019" cy="-360.58" rx="45.25" ry="29.52"/>
<text xml:space="preserve" text-anchor="middle" x="1019" y="-367.96" font-family="Helvetica,sans-Serif" font-size="10.00" fill="#ffffff">flow_state.</text>
<text xml:space="preserve" text-anchor="middle" x="1019" y="-356.71" font-family="Helvetica,sans-Serif" font-size="10.00" fill="#ffffff">transport.</text>
<text xml:space="preserve" text-anchor="middle" x="1019" y="-345.46" font-family="Helvetica,sans-Serif" font-size="10.00" fill="#ffffff">core</text>
</g>
<!-- flow_state_transport_core&#45;&gt;flow_state_transport -->
<g id="edge42" class="edge">
<title>flow_state_transport_core&#45;&gt;flow_state_transport</title><style>.edge>path:hover{stroke-width:8}</style>
<path fill="none" stroke="black" d="M1055,-264.54C1045.93,-242.95 1030.67,-221.41 1017.81,-205.41"/>
<polygon fill="#ce3b3b" stroke="black" points="1020.62,-203.31 1011.55,-197.84 1015.22,-207.77 1020.62,-203.31"/>
<path fill="none" stroke="black" d="M1039.73,-334.15C1052.41,-315.36 1064.53,-289.21 1055,-266.54"/>
</g>
<!-- flow_state_transport_registry -->
<g id="node28" class="node">
<title>flow_state_transport_registry</title><style>.edge>path:hover{stroke-width:8}</style>
<polygon fill="blue" stroke="black" points="1027,-286.41 963,-286.41 963,-244.66 1027,-244.66 1027,-286.41"/>
<text xml:space="preserve" text-anchor="middle" x="995" y="-272.91" font-family="Helvetica,sans-Serif" font-size="10.00" fill="white">flow_state.</text>
<text xml:space="preserve" text-anchor="middle" x="995" y="-261.66" font-family="Helvetica,sans-Serif" font-size="10.00" fill="white">transport.</text>
<text xml:space="preserve" text-anchor="middle" x="995" y="-250.41" font-family="Helvetica,sans-Serif" font-size="10.00" fill="white">registry</text>
</g>
<!-- flow_state_transport_core&#45;&gt;flow_state_transport_registry -->
<g id="edge43" class="edge">
<title>flow_state_transport_core&#45;&gt;flow_state_transport_registry</title><style>.edge>path:hover{stroke-width:8}</style>
<path fill="none" stroke="black" d="M1011.67,-331.16C1008.96,-320.64 1005.87,-308.66 1003.09,-297.9"/>
<polygon fill="#ce3b3b" stroke="black" points="1006.5,-297.1 1000.61,-288.29 999.72,-298.84 1006.5,-297.1"/>
</g>
<!-- flow_state_transport_keyes -->
<g id="node26" class="node">
<title>flow_state_transport_keyes</title><style>.edge>path:hover{stroke-width:8}</style>
<ellipse fill="#ce3b3b" stroke="black" cx="1128" cy="-360.58" rx="45.25" ry="29.52"/>
<text xml:space="preserve" text-anchor="middle" x="1128" y="-367.96" font-family="Helvetica,sans-Serif" font-size="10.00" fill="#ffffff">flow_state.</text>
<text xml:space="preserve" text-anchor="middle" x="1128" y="-356.71" font-family="Helvetica,sans-Serif" font-size="10.00" fill="#ffffff">transport.</text>
<text xml:space="preserve" text-anchor="middle" x="1128" y="-345.46" font-family="Helvetica,sans-Serif" font-size="10.00" fill="#ffffff">keyes</text>
</g>
<!-- flow_state_transport_keyes&#45;&gt;flow_state_transport -->
<g id="edge44" class="edge">
<title>flow_state_transport_keyes&#45;&gt;flow_state_transport</title><style>.edge>path:hover{stroke-width:8}</style>
<path fill="none" stroke="black" d="M1103.12,-335.53C1086.63,-318.02 1066.05,-292.85 1055,-266.54"/>
</g>
<!-- flow_state_transport_keyes&#45;&gt;flow_state_transport_registry -->
<g id="edge45" class="edge">
<title>flow_state_transport_keyes&#45;&gt;flow_state_transport_registry</title><style>.edge>path:hover{stroke-width:8}</style>
<path fill="none" stroke="black" d="M1097.49,-338.24C1078.42,-324.9 1053.7,-307.61 1033.32,-293.35"/>
<polygon fill="#ce3b3b" stroke="black" points="1035.44,-290.56 1025.24,-287.7 1031.43,-296.3 1035.44,-290.56"/>
</g>
<!-- flow_state_transport_power_law -->
<g id="node27" class="node">
<title>flow_state_transport_power_law</title><style>.edge>path:hover{stroke-width:8}</style>
<ellipse fill="#ce3b3b" stroke="black" cx="801" cy="-360.58" rx="45.25" ry="29.52"/>
<text xml:space="preserve" text-anchor="middle" x="801" y="-367.96" font-family="Helvetica,sans-Serif" font-size="10.00" fill="#ffffff">flow_state.</text>
<text xml:space="preserve" text-anchor="middle" x="801" y="-356.71" font-family="Helvetica,sans-Serif" font-size="10.00" fill="#ffffff">transport.</text>
<text xml:space="preserve" text-anchor="middle" x="801" y="-345.46" font-family="Helvetica,sans-Serif" font-size="10.00" fill="#ffffff">power_law</text>
</g>
<!-- flow_state_transport_power_law&#45;&gt;flow_state_transport -->
<g id="edge46" class="edge">
<title>flow_state_transport_power_law&#45;&gt;flow_state_transport</title><style>.edge>path:hover{stroke-width:8}</style>
<path fill="none" stroke="black" d="M835.74,-341.16C867.12,-324.34 909.37,-301.21 916,-295.06 927.17,-284.71 925.78,-278.66 935,-266.54"/>
<path fill="none" stroke="black" d="M935,-264.54C944.22,-252.41 945.31,-248.52 954,-236.02 960.83,-226.19 968.49,-215.53 975.33,-206.14"/>
<polygon fill="#ce3b3b" stroke="black" points="978.11,-208.26 981.18,-198.13 972.46,-204.13 978.11,-208.26"/>
</g>
<!-- flow_state_transport_power_law&#45;&gt;flow_state_transport_registry -->
<g id="edge47" class="edge">
<title>flow_state_transport_power_law&#45;&gt;flow_state_transport_registry</title><style>.edge>path:hover{stroke-width:8}</style>
<path fill="none" stroke="black" d="M835.34,-341.05C842.12,-337.59 849.24,-334.11 856,-331.06 896.4,-312.83 909.33,-314.82 949,-295.06 950.71,-294.21 952.43,-293.32 954.16,-292.39"/>
<polygon fill="#ce3b3b" stroke="black" points="955.72,-295.53 962.7,-287.57 952.27,-289.44 955.72,-295.53"/>
</g>
<!-- flow_state_transport_registry&#45;&gt;flow_state_transport -->
<g id="edge48" class="edge">
<title>flow_state_transport_registry&#45;&gt;flow_state_transport</title><style>.edge>path:hover{stroke-width:8}</style>
<path fill="none" stroke="black" d="M995,-244.37C995,-233.54 995,-219.99 995,-208.08"/>
<polygon fill="blue" stroke="black" points="998.5,-208.39 995,-198.39 991.5,-208.39 998.5,-208.39"/>
</g>
<!-- flow_state_transport_Sutherland -->
<g id="node29" class="node">
<title>flow_state_transport_Sutherland</title><style>.edge>path:hover{stroke-width:8}</style>
<ellipse fill="#b65353" stroke="black" cx="1128" cy="-265.54" rx="45.25" ry="29.52"/>
<text xml:space="preserve" text-anchor="middle" x="1128" y="-272.91" font-family="Helvetica,sans-Serif" font-size="10.00" fill="#ffffff">flow_state.</text>
<text xml:space="preserve" text-anchor="middle" x="1128" y="-261.66" font-family="Helvetica,sans-Serif" font-size="10.00" fill="#ffffff">transport.</text>
<text xml:space="preserve" text-anchor="middle" x="1128" y="-250.41" font-family="Helvetica,sans-Serif" font-size="10.00" fill="#ffffff">Sutherland</text>
</g>
<!-- flow_state_transport_Sutherland&#45;&gt;flow_state_solvers -->
<g id="edge49" class="edge">
<title>flow_state_transport_Sutherland&#45;&gt;flow_state_solvers</title><style>.edge>path:hover{stroke-width:8}</style>
<path fill="none" stroke="black" d="M1106.68,-239.14C1080.25,-207.72 1038.36,-158.16 1036,-156.88 970.7,-121.39 749.03,-106.88 653.92,-102.19"/>
<polygon fill="#b65353" stroke="black" points="654.11,-98.7 643.95,-101.72 653.77,-105.69 654.11,-98.7"/>
</g>
<!-- flow_state_transport_sutherland -->
<g id="node30" class="node">
<title>flow_state_transport_sutherland</title><style>.edge>path:hover{stroke-width:8}</style>
<ellipse fill="#ce3b3b" stroke="black" cx="910" cy="-360.58" rx="45.25" ry="29.52"/>
<text xml:space="preserve" text-anchor="middle" x="910" y="-367.96" font-family="Helvetica,sans-Serif" font-size="10.00" fill="#ffffff">flow_state.</text>
<text xml:space="preserve" text-anchor="middle" x="910" y="-356.71" font-family="Helvetica,sans-Serif" font-size="10.00" fill="#ffffff">transport.</text>
<text xml:space="preserve" text-anchor="middle" x="910" y="-345.46" font-family="Helvetica,sans-Serif" font-size="10.00" fill="#ffffff">sutherland</text>
</g>
<!-- flow_state_transport_sutherland&#45;&gt;flow_state_transport -->
<g id="edge50" class="edge">
<title>flow_state_transport_sutherland&#45;&gt;flow_state_transport</title><style>.edge>path:hover{stroke-width:8}</style>
<path fill="none" stroke="black" d="M912.08,-330.64C914.77,-310.89 920.93,-285.05 935,-266.54"/>
</g>
<!-- flow_state_transport_sutherland&#45;&gt;flow_state_transport_registry -->
<g id="edge51" class="edge">
<title>flow_state_transport_sutherland&#45;&gt;flow_state_transport_registry</title><style>.edge>path:hover{stroke-width:8}</style>
<path fill="none" stroke="black" d="M932.78,-334.65C943.89,-322.49 957.3,-307.8 968.83,-295.19"/>
<polygon fill="#ce3b3b" stroke="black" points="971.27,-297.7 975.44,-287.95 966.11,-292.98 971.27,-297.7"/>
</g>
<!-- flow_state_turbulence -->
<g id="node31" class="node">
<title>flow_state_turbulence</title><style>.edge>path:hover{stroke-width:8}</style>
<ellipse fill="#ce3b3b" stroke="black" cx="389" cy="-265.54" rx="45.25" ry="21.57"/>
<text xml:space="preserve" text-anchor="middle" x="389" y="-267.29" font-family="Helvetica,sans-Serif" font-size="10.00" fill="#ffffff">flow_state.</text>
<text xml:space="preserve" text-anchor="middle" x="389" y="-256.04" font-family="Helvetica,sans-Serif" font-size="10.00" fill="#ffffff">turbulence</text>
</g>
<!-- flow_state_turbulence&#45;&gt;flow_state_core -->
<g id="edge52" class="edge">
<title>flow_state_turbulence&#45;&gt;flow_state_core</title><style>.edge>path:hover{stroke-width:8}</style>
<path fill="none" stroke="black" d="M384.4,-243.94C381.98,-233.1 378.97,-219.63 376.33,-207.81"/>
<polygon fill="#ce3b3b" stroke="black" points="379.78,-207.18 374.18,-198.18 372.95,-208.7 379.78,-207.18"/>
</g>
<!-- flow_state_turbulence&#45;&gt;flow_state_solvers -->
<g id="edge53" class="edge">
<title>flow_state_turbulence&#45;&gt;flow_state_solvers</title><style>.edge>path:hover{stroke-width:8}</style>
<path fill="none" stroke="black" d="M576,-177.45C588.43,-163.45 596.93,-144.17 602.32,-128.4"/>
<polygon fill="#ce3b3b" stroke="black" points="605.58,-129.69 605.25,-119.1 598.91,-127.58 605.58,-129.69"/>
<path fill="none" stroke="black" d="M418.97,-249.11C428.17,-244.63 438.4,-239.9 448,-236.02 495.29,-216.87 514.1,-227.63 557,-200.02 567.46,-193.28 567.74,-188.76 576,-179.45"/>
</g>
<!-- flow_state_units -->
<g id="node32" class="node">
<title>flow_state_units</title><style>.edge>path:hover{stroke-width:8}</style>
<ellipse fill="#c24747" stroke="black" cx="503" cy="-178.45" rx="45.25" ry="21.57"/>
<text xml:space="preserve" text-anchor="middle" x="503" y="-180.2" font-family="Helvetica,sans-Serif" font-size="10.00" fill="#ffffff">flow_state.</text>
<text xml:space="preserve" text-anchor="middle" x="503" y="-168.95" font-family="Helvetica,sans-Serif" font-size="10.00" fill="#ffffff">units</text>
</g>
<!-- flow_state_units&#45;&gt;flow_state_solvers -->
<g id="edge54" class="edge">
<title>flow_state_units&#45;&gt;flow_state_solvers</title><style>.edge>path:hover{stroke-width:8}</style>
<path fill="none" stroke="black" d="M527.28,-159.95C541.92,-149.4 560.77,-135.81 576.77,-124.27"/>
<polygon fill="#c24747" stroke="black" points="578.52,-127.32 584.59,-118.64 574.43,-121.64 578.52,-127.32"/>
</g>
<!-- tomli_w -->
<g id="node33" class="node">
<title>tomli_w</title><style>.edge>path:hover{stroke-width:8}</style>
<polygon fill="#40c040" stroke="black" points="59,-283.54 56,-287.54 35,-287.54 32,-283.54 5,-283.54 5,-247.54 59,-247.54 59,-283.54"/>
<text xml:space="preserve" text-anchor="middle" x="32" y="-261.66" font-family="Helvetica,sans-Serif" font-size="10.00" fill="#000000">tomli_w</text>
</g>
<!-- tomli_w&#45;&gt;flow_state_io_write_data -->
<g id="edge55" class="edge">
<title>tomli_w&#45;&gt;flow_state_io_write_data</title><style>.edge>path:hover{stroke-width:8}</style>
<path fill="none" stroke="black" d="M32,-247.09C32,-206.54 32,-105.5 32,-53.66"/>
<polygon fill="#40c040" stroke="black" points="35.5,-53.71 32,-43.71 28.5,-53.71 35.5,-53.71"/>
</g>
<!-- typer -->
<g id="node34" class="node">
<title>typer</title><style>.edge>path:hover{stroke-width:8}</style>
<polygon fill="#4040c0" stroke="black" points="191,-196.45 188,-200.45 167,-200.45 164,-196.45 137,-196.45 137,-160.45 191,-160.45 191,-196.45"/>
<text xml:space="preserve" text-anchor="middle" x="164" y="-174.58" font-family="Helvetica,sans-Serif" font-size="10.00" fill="#ffffff">typer</text>
</g>
<!-- typer&#45;&gt;flow_state_cli -->
<g id="edge56" class="edge">
<title>typer&#45;&gt;flow_state_cli</title><style>.edge>path:hover{stroke-width:8}</style>
<path fill="none" stroke="black" d="M166.2,-160.05C167.68,-144.25 168.61,-120.42 164,-100.32"/>
</g>
</g>
</svg>
