<?xml version="1.0" encoding="UTF-8" standalone="no"?>
<!DOCTYPE svg PUBLIC "-//W3C//DTD SVG 1.1//EN"
 "http://www.w3.org/Graphics/SVG/1.1/DTD/svg11.dtd">
<!-- Generated by graphviz version 14.1.2 (20260124.0452)
 -->
<!-- Title: G Pages: 1 -->
<svg width="1088pt" height="959pt"
 viewBox="0.00 0.00 1088.00 959.00" xmlns="http://www.w3.org/2000/svg" xmlns:xlink="http://www.w3.org/1999/xlink">
<g id="graph0" class="graph" transform="scale(1 1) rotate(0) translate(4 954.74)">
<title>G</title><style>.edge>path:hover{stroke-width:8}</style>
<polygon fill="white" stroke="none" points="-4,4 -4,-954.74 1084.31,-954.74 1084.31,4 -4,4"/>
<!-- flow_state -->
<g id="node1" class="node">
<title>flow_state</title><style>.edge>path:hover{stroke-width:8}</style>
<polygon fill="blue" stroke="black" points="1067.17,-589.74 1006.17,-589.74 1006.17,-553.74 1067.17,-553.74 1067.17,-589.74"/>
<text xml:space="preserve" text-anchor="middle" x="1036.67" y="-567.86" font-family="Helvetica,sans-Serif" font-size="10.00" fill="white">flow_state</text>
</g>
<!-- flow_state__version -->
<g id="node2" class="node">
<title>flow_state__version</title><style>.edge>path:hover{stroke-width:8}</style>
<ellipse fill="#ce3b3b" stroke="black" cx="911.78" cy="-654.74" rx="45.25" ry="21.57"/>
<text xml:space="preserve" text-anchor="middle" x="911.78" y="-656.49" font-family="Helvetica,sans-Serif" font-size="10.00" fill="#ffffff">flow_state.</text>
<text xml:space="preserve" text-anchor="middle" x="911.78" y="-645.24" font-family="Helvetica,sans-Serif" font-size="10.00" fill="#ffffff">_version</text>
</g>
<!-- flow_state__version&#45;&gt;flow_state -->
<g id="edge1" class="edge">
<title>flow_state__version&#45;&gt;flow_state</title><style>.edge>path:hover{stroke-width:8}</style>
<path fill="none" stroke="black" d="M938.84,-637.13C956.32,-625.33 979.59,-609.61 998.94,-596.54"/>
<polygon fill="#ce3b3b" stroke="black" points="1000.79,-599.52 1007.11,-591.02 996.87,-593.72 1000.79,-599.52"/>
</g>
<!-- flow_state_cli -->
<g id="node9" class="node">
<title>flow_state_cli</title><style>.edge>path:hover{stroke-width:8}</style>
<ellipse fill="#8f3d3d" stroke="black" cx="1036.67" cy="-679.74" rx="43.64" ry="18"/>
<text xml:space="preserve" text-anchor="middle" x="1036.67" y="-675.86" font-family="Helvetica,sans-Serif" font-size="10.00" fill="#ffffff">flow_state.cli</text>
</g>
<!-- flow_state__version&#45;&gt;flow_state_cli -->
<g id="edge2" class="edge">
<title>flow_state__version&#45;&gt;flow_state_cli</title><style>.edge>path:hover{stroke-width:8}</style>
<path fill="none" stroke="black" d="M954.04,-663.13C964.18,-665.19 975.15,-667.42 985.65,-669.56"/>
<polygon fill="#ce3b3b" stroke="black" points="984.82,-672.96 995.32,-671.53 986.22,-666.1 984.82,-672.96"/>
</g>
<!-- flow_state_atmosphere -->
<g id="node3" class="node">
<title>flow_state_atmosphere</title><style>.edge>path:hover{stroke-width:8}</style>
<polygon fill="blue" stroke="black" points="413.99,-441.74 346.99,-441.74 346.99,-405.74 413.99,-405.74 413.99,-441.74"/>
<text xml:space="preserve" text-anchor="middle" x="380.49" y="-425.49" font-family="Helvetica,sans-Serif" font-size="10.00" fill="white">flow_state.</text>
<text xml:space="preserve" text-anchor="middle" x="380.49" y="-414.24" font-family="Helvetica,sans-Serif" font-size="10.00" fill="white">atmosphere</text>
</g>
<!-- flow_state_atmosphere&#45;&gt;flow_state -->
<g id="edge3" class="edge">
<title>flow_state_atmosphere&#45;&gt;flow_state</title><style>.edge>path:hover{stroke-width:8}</style>
<path fill="none" stroke="black" d="M912.78,-48.74C997.73,-103.26 1026.88,-439.47 1033.86,-542.05"/>
<polygon fill="blue" stroke="black" points="1030.36,-542.11 1034.51,-551.86 1037.34,-541.65 1030.36,-542.11"/>
<path fill="none" stroke="black" d="M533.25,-318.74C640.63,-271.97 521.17,-139.78 613.5,-67.74 717.88,13.71 799.36,22.78 910.78,-48.74"/>
<path fill="none" stroke="black" d="M450.99,-318.74C486.55,-321.56 498.65,-333.21 531.25,-318.74"/>
<path fill="none" stroke="black" d="M384.69,-405.25C391.19,-374.26 408.99,-315.48 449.99,-318.74"/>
</g>
<!-- flow_state_io_read_config -->
<g id="node18" class="node">
<title>flow_state_io_read_config</title><style>.edge>path:hover{stroke-width:8}</style>
<polygon fill="blue" stroke="black" points="565.37,-696.61 499.12,-696.61 499.12,-654.86 565.37,-654.86 565.37,-696.61"/>
<text xml:space="preserve" text-anchor="middle" x="532.25" y="-683.11" font-family="Helvetica,sans-Serif" font-size="10.00" fill="white">flow_state.</text>
<text xml:space="preserve" text-anchor="middle" x="532.25" y="-671.86" font-family="Helvetica,sans-Serif" font-size="10.00" fill="white">io.</text>
<text xml:space="preserve" text-anchor="middle" x="532.25" y="-660.61" font-family="Helvetica,sans-Serif" font-size="10.00" fill="white">read_config</text>
</g>
<!-- flow_state_atmosphere&#45;&gt;flow_state_io_read_config -->
<g id="edge4" class="edge">
<title>flow_state_atmosphere&#45;&gt;flow_state_io_read_config</title><style>.edge>path:hover{stroke-width:8}</style>
<path fill="none" stroke="black" d="M450.99,-318.74C524.09,-324.54 448.67,-584.22 486.99,-646.74 488.02,-648.4 489.18,-650 490.44,-651.51"/>
<polygon fill="blue" stroke="black" points="487.92,-653.94 497.56,-658.33 492.76,-648.89 487.92,-653.94"/>
</g>
<!-- flow_state_solvers -->
<g id="node23" class="node">
<title>flow_state_solvers</title><style>.edge>path:hover{stroke-width:8}</style>
<polygon fill="blue" stroke="black" points="943.78,-539.74 879.78,-539.74 879.78,-503.74 943.78,-503.74 943.78,-539.74"/>
<text xml:space="preserve" text-anchor="middle" x="911.78" y="-523.49" font-family="Helvetica,sans-Serif" font-size="10.00" fill="white">flow_state.</text>
<text xml:space="preserve" text-anchor="middle" x="911.78" y="-512.24" font-family="Helvetica,sans-Serif" font-size="10.00" fill="white">solvers</text>
</g>
<!-- flow_state_atmosphere&#45;&gt;flow_state_solvers -->
<g id="edge5" class="edge">
<title>flow_state_atmosphere&#45;&gt;flow_state_solvers</title><style>.edge>path:hover{stroke-width:8}</style>
<path fill="none" stroke="black" d="M533.25,-318.74C584.77,-296.41 734.23,-322.25 784.27,-347.74"/>
<path fill="none" stroke="black" d="M786.27,-347.74C845.6,-378.25 882.97,-451.6 899.98,-492.66"/>
<polygon fill="blue" stroke="black" points="896.72,-493.93 903.68,-501.91 903.22,-491.33 896.72,-493.93"/>
</g>
<!-- flow_state_atmosphere_CIRA86 -->
<g id="node4" class="node">
<title>flow_state_atmosphere_CIRA86</title><style>.edge>path:hover{stroke-width:8}</style>
<polygon fill="blue" stroke="black" points="204.99,-591.61 134.99,-591.61 134.99,-549.86 204.99,-549.86 204.99,-591.61"/>
<text xml:space="preserve" text-anchor="middle" x="169.99" y="-578.11" font-family="Helvetica,sans-Serif" font-size="10.00" fill="white">flow_state.</text>
<text xml:space="preserve" text-anchor="middle" x="169.99" y="-566.86" font-family="Helvetica,sans-Serif" font-size="10.00" fill="white">atmosphere.</text>
<text xml:space="preserve" text-anchor="middle" x="169.99" y="-555.61" font-family="Helvetica,sans-Serif" font-size="10.00" fill="white">CIRA86</text>
</g>
<!-- flow_state_atmosphere_CIRA86&#45;&gt;flow_state_io_read_config -->
<g id="edge8" class="edge">
<title>flow_state_atmosphere_CIRA86&#45;&gt;flow_state_io_read_config</title><style>.edge>path:hover{stroke-width:8}</style>
<path fill="none" stroke="black" d="M205.21,-580.71C271.06,-599.9 415.31,-641.94 487.82,-663.08"/>
<polygon fill="blue" stroke="black" points="486.79,-666.42 497.37,-665.86 488.75,-659.7 486.79,-666.42"/>
</g>
<!-- flow_state_atmosphere_cira86 -->
<g id="node5" class="node">
<title>flow_state_atmosphere_cira86</title><style>.edge>path:hover{stroke-width:8}</style>
<polygon fill="blue" stroke="black" points="204.99,-493.61 134.99,-493.61 134.99,-451.86 204.99,-451.86 204.99,-493.61"/>
<text xml:space="preserve" text-anchor="middle" x="169.99" y="-480.11" font-family="Helvetica,sans-Serif" font-size="10.00" fill="white">flow_state.</text>
<text xml:space="preserve" text-anchor="middle" x="169.99" y="-468.86" font-family="Helvetica,sans-Serif" font-size="10.00" fill="white">atmosphere.</text>
<text xml:space="preserve" text-anchor="middle" x="169.99" y="-457.61" font-family="Helvetica,sans-Serif" font-size="10.00" fill="white">cira86</text>
</g>
<!-- flow_state_atmosphere_cira86&#45;&gt;flow_state_atmosphere -->
<g id="edge6" class="edge">
<title>flow_state_atmosphere_cira86&#45;&gt;flow_state_atmosphere</title><style>.edge>path:hover{stroke-width:8}</style>
<path fill="none" stroke="black" d="M193.63,-494.01C214.12,-510.62 245.51,-529.68 274.99,-521.74"/>
<path fill="none" stroke="black" d="M276.99,-521.74C314.56,-511.62 344.81,-476.65 362.45,-451.37"/>
<polygon fill="blue" stroke="black" points="365.3,-453.4 367.96,-443.15 359.49,-449.51 365.3,-453.4"/>
</g>
<!-- flow_state_atmosphere_registry -->
<g id="node7" class="node">
<title>flow_state_atmosphere_registry</title><style>.edge>path:hover{stroke-width:8}</style>
<polygon fill="blue" stroke="black" points="310.99,-444.61 240.99,-444.61 240.99,-402.86 310.99,-402.86 310.99,-444.61"/>
<text xml:space="preserve" text-anchor="middle" x="275.99" y="-431.11" font-family="Helvetica,sans-Serif" font-size="10.00" fill="white">flow_state.</text>
<text xml:space="preserve" text-anchor="middle" x="275.99" y="-419.86" font-family="Helvetica,sans-Serif" font-size="10.00" fill="white">atmosphere.</text>
<text xml:space="preserve" text-anchor="middle" x="275.99" y="-408.61" font-family="Helvetica,sans-Serif" font-size="10.00" fill="white">registry</text>
</g>
<!-- flow_state_atmosphere_cira86&#45;&gt;flow_state_atmosphere_registry -->
<g id="edge7" class="edge">
<title>flow_state_atmosphere_cira86&#45;&gt;flow_state_atmosphere_registry</title><style>.edge>path:hover{stroke-width:8}</style>
<path fill="none" stroke="black" d="M205.34,-456.56C213.32,-452.79 221.94,-448.73 230.3,-444.79"/>
<polygon fill="blue" stroke="black" points="231.77,-447.97 239.32,-440.54 228.78,-441.64 231.77,-447.97"/>
</g>
<!-- flow_state_atmosphere_core -->
<g id="node6" class="node">
<title>flow_state_atmosphere_core</title><style>.edge>path:hover{stroke-width:8}</style>
<ellipse fill="#f31616" stroke="black" cx="49.5" cy="-472.74" rx="49.5" ry="29.52"/>
<text xml:space="preserve" text-anchor="middle" x="49.5" y="-480.11" font-family="Helvetica,sans-Serif" font-size="10.00" fill="#ffffff">flow_state.</text>
<text xml:space="preserve" text-anchor="middle" x="49.5" y="-468.86" font-family="Helvetica,sans-Serif" font-size="10.00" fill="#ffffff">atmosphere.</text>
<text xml:space="preserve" text-anchor="middle" x="49.5" y="-457.61" font-family="Helvetica,sans-Serif" font-size="10.00" fill="#ffffff">core</text>
</g>
<!-- flow_state_atmosphere_core&#45;&gt;flow_state_atmosphere -->
<g id="edge9" class="edge">
<title>flow_state_atmosphere_core&#45;&gt;flow_state_atmosphere</title><style>.edge>path:hover{stroke-width:8}</style>
<path fill="none" stroke="black" d="M87.71,-491.76C132.45,-512.14 209.7,-539.32 274.99,-521.74"/>
</g>
<!-- flow_state_atmosphere_core&#45;&gt;flow_state_atmosphere_CIRA86 -->
<g id="edge10" class="edge">
<title>flow_state_atmosphere_core&#45;&gt;flow_state_atmosphere_CIRA86</title><style>.edge>path:hover{stroke-width:8}</style>
<path fill="none" stroke="black" d="M79.49,-496.71C96.17,-510.51 117.24,-527.93 134.74,-542.41"/>
<polygon fill="#f31616" stroke="black" points="132.42,-545.03 142.36,-548.71 136.88,-539.64 132.42,-545.03"/>
</g>
<!-- flow_state_atmosphere_core&#45;&gt;flow_state_atmosphere_cira86 -->
<g id="edge11" class="edge">
<title>flow_state_atmosphere_core&#45;&gt;flow_state_atmosphere_cira86</title><style>.edge>path:hover{stroke-width:8}</style>
<path fill="none" stroke="black" d="M99.38,-472.74C107.25,-472.74 115.38,-472.74 123.18,-472.74"/>
<polygon fill="#f31616" stroke="black" points="123.17,-476.24 133.17,-472.74 123.17,-469.24 123.17,-476.24"/>
</g>
<!-- flow_state_atmosphere_core&#45;&gt;flow_state_atmosphere_registry -->
<g id="edge12" class="edge">
<title>flow_state_atmosphere_core&#45;&gt;flow_state_atmosphere_registry</title><style>.edge>path:hover{stroke-width:8}</style>
<path fill="none" stroke="black" d="M91.24,-456.36C104.96,-451.36 120.47,-446.26 134.99,-442.74 166.07,-435.2 201.81,-430.41 229.39,-427.52"/>
<polygon fill="#f31616" stroke="black" points="229.57,-431.02 239.17,-426.55 228.88,-424.06 229.57,-431.02"/>
</g>
<!-- flow_state_atmosphere_ussa76 -->
<g id="node8" class="node">
<title>flow_state_atmosphere_ussa76</title><style>.edge>path:hover{stroke-width:8}</style>
<polygon fill="blue" stroke="black" points="204.99,-395.61 134.99,-395.61 134.99,-353.86 204.99,-353.86 204.99,-395.61"/>
<text xml:space="preserve" text-anchor="middle" x="169.99" y="-382.11" font-family="Helvetica,sans-Serif" font-size="10.00" fill="white">flow_state.</text>
<text xml:space="preserve" text-anchor="middle" x="169.99" y="-370.86" font-family="Helvetica,sans-Serif" font-size="10.00" fill="white">atmosphere.</text>
<text xml:space="preserve" text-anchor="middle" x="169.99" y="-359.61" font-family="Helvetica,sans-Serif" font-size="10.00" fill="white">ussa76</text>
</g>
<!-- flow_state_atmosphere_core&#45;&gt;flow_state_atmosphere_ussa76 -->
<g id="edge13" class="edge">
<title>flow_state_atmosphere_core&#45;&gt;flow_state_atmosphere_ussa76</title><style>.edge>path:hover{stroke-width:8}</style>
<path fill="none" stroke="black" d="M79.49,-448.76C96.17,-434.96 117.24,-417.54 134.74,-403.07"/>
<polygon fill="#f31616" stroke="black" points="136.88,-405.83 142.36,-396.76 132.42,-400.44 136.88,-405.83"/>
</g>
<!-- flow_state_atmosphere_registry&#45;&gt;flow_state_atmosphere -->
<g id="edge14" class="edge">
<title>flow_state_atmosphere_registry&#45;&gt;flow_state_atmosphere</title><style>.edge>path:hover{stroke-width:8}</style>
<path fill="none" stroke="black" d="M311.41,-423.74C319.07,-423.74 327.29,-423.74 335.28,-423.74"/>
<polygon fill="blue" stroke="black" points="335.22,-427.24 345.22,-423.74 335.22,-420.24 335.22,-427.24"/>
</g>
<!-- flow_state_atmosphere_ussa76&#45;&gt;flow_state_atmosphere -->
<g id="edge15" class="edge">
<title>flow_state_atmosphere_ussa76&#45;&gt;flow_state_atmosphere</title><style>.edge>path:hover{stroke-width:8}</style>
<path fill="none" stroke="black" d="M205.48,-376.74C234.16,-379.04 275.81,-383.85 310.99,-393.74 319.34,-396.08 327.99,-399.24 336.22,-402.63"/>
<polygon fill="blue" stroke="black" points="334.77,-405.82 345.34,-406.58 337.55,-399.4 334.77,-405.82"/>
</g>
<!-- flow_state_atmosphere_ussa76&#45;&gt;flow_state_atmosphere_registry -->
<g id="edge16" class="edge">
<title>flow_state_atmosphere_ussa76&#45;&gt;flow_state_atmosphere_registry</title><style>.edge>path:hover{stroke-width:8}</style>
<path fill="none" stroke="black" d="M205.34,-390.92C213.32,-394.68 221.94,-398.74 230.3,-402.68"/>
<polygon fill="blue" stroke="black" points="228.78,-405.83 239.32,-406.93 231.77,-399.5 228.78,-405.83"/>
</g>
<!-- flow_state_core -->
<g id="node10" class="node">
<title>flow_state_core</title><style>.edge>path:hover{stroke-width:8}</style>
<polygon fill="blue" stroke="black" points="817.27,-790.74 753.27,-790.74 753.27,-754.74 817.27,-754.74 817.27,-790.74"/>
<text xml:space="preserve" text-anchor="middle" x="785.27" y="-774.49" font-family="Helvetica,sans-Serif" font-size="10.00" fill="white">flow_state.</text>
<text xml:space="preserve" text-anchor="middle" x="785.27" y="-763.24" font-family="Helvetica,sans-Serif" font-size="10.00" fill="white">core</text>
</g>
<!-- flow_state_core&#45;&gt;flow_state -->
<g id="edge17" class="edge">
<title>flow_state_core&#45;&gt;flow_state</title><style>.edge>path:hover{stroke-width:8}</style>
<path fill="none" stroke="black" d="M817.69,-757.66C822.5,-754.28 827.02,-750.3 830.52,-745.74 864.96,-700.9 828.99,-666.01 866.52,-623.74 880.74,-607.73 891.61,-614.26 910.78,-604.74"/>
</g>
<!-- flow_state_io_legacy_dat -->
<g id="node16" class="node">
<title>flow_state_io_legacy_dat</title><style>.edge>path:hover{stroke-width:8}</style>
<polygon fill="blue" stroke="black" points="1068.67,-874.61 1004.67,-874.61 1004.67,-832.86 1068.67,-832.86 1068.67,-874.61"/>
<text xml:space="preserve" text-anchor="middle" x="1036.67" y="-861.11" font-family="Helvetica,sans-Serif" font-size="10.00" fill="white">flow_state.</text>
<text xml:space="preserve" text-anchor="middle" x="1036.67" y="-849.86" font-family="Helvetica,sans-Serif" font-size="10.00" fill="white">io.</text>
<text xml:space="preserve" text-anchor="middle" x="1036.67" y="-838.61" font-family="Helvetica,sans-Serif" font-size="10.00" fill="white">legacy_dat</text>
</g>
<!-- flow_state_core&#45;&gt;flow_state_io_legacy_dat -->
<g id="edge18" class="edge">
<title>flow_state_core&#45;&gt;flow_state_io_legacy_dat</title><style>.edge>path:hover{stroke-width:8}</style>
<path fill="none" stroke="black" d="M817.6,-782.91C862.12,-797.37 943.78,-823.89 993.55,-840.06"/>
<polygon fill="blue" stroke="black" points="992.24,-843.31 1002.83,-843.07 994.4,-836.65 992.24,-843.31"/>
</g>
<!-- flow_state_io_print_summary -->
<g id="node17" class="node">
<title>flow_state_io_print_summary</title><style>.edge>path:hover{stroke-width:8}</style>
<polygon fill="blue" stroke="black" points="1076.92,-814.61 996.42,-814.61 996.42,-772.86 1076.92,-772.86 1076.92,-814.61"/>
<text xml:space="preserve" text-anchor="middle" x="1036.67" y="-801.11" font-family="Helvetica,sans-Serif" font-size="10.00" fill="white">flow_state.</text>
<text xml:space="preserve" text-anchor="middle" x="1036.67" y="-789.86" font-family="Helvetica,sans-Serif" font-size="10.00" fill="white">io.</text>
<text xml:space="preserve" text-anchor="middle" x="1036.67" y="-778.61" font-family="Helvetica,sans-Serif" font-size="10.00" fill="white">print_summary</text>
</g>
<!-- flow_state_core&#45;&gt;flow_state_io_print_summary -->
<g id="edge19" class="edge">
<title>flow_state_core&#45;&gt;flow_state_io_print_summary</title><style>.edge>path:hover{stroke-width:8}</style>
<path fill="none" stroke="black" d="M828.83,-766.56C863.56,-762.63 913.79,-759.52 957.03,-766.74 966.35,-768.29 976.03,-770.81 985.3,-773.71"/>
<polygon fill="blue" stroke="black" points="828.68,-763.05 819.18,-767.72 829.52,-770 828.68,-763.05"/>
<polygon fill="blue" stroke="black" points="983.9,-776.93 994.49,-776.76 986.1,-770.29 983.9,-776.93"/>
</g>
<!-- flow_state_io_write_data -->
<g id="node19" class="node">
<title>flow_state_io_write_data</title><style>.edge>path:hover{stroke-width:8}</style>
<polygon fill="blue" stroke="black" points="1068.67,-934.61 1004.67,-934.61 1004.67,-892.86 1068.67,-892.86 1068.67,-934.61"/>
<text xml:space="preserve" text-anchor="middle" x="1036.67" y="-921.11" font-family="Helvetica,sans-Serif" font-size="10.00" fill="white">flow_state.</text>
<text xml:space="preserve" text-anchor="middle" x="1036.67" y="-909.86" font-family="Helvetica,sans-Serif" font-size="10.00" fill="white">io.</text>
<text xml:space="preserve" text-anchor="middle" x="1036.67" y="-898.61" font-family="Helvetica,sans-Serif" font-size="10.00" fill="white">write_data</text>
</g>
<!-- flow_state_core&#45;&gt;flow_state_io_write_data -->
<g id="edge20" class="edge">
<title>flow_state_core&#45;&gt;flow_state_io_write_data</title><style>.edge>path:hover{stroke-width:8}</style>
<path fill="none" stroke="black" d="M811.38,-791.19C826.93,-802.31 847.5,-816.44 866.52,-827.74 908.89,-852.88 959.47,-877.99 994.22,-894.53"/>
<polygon fill="blue" stroke="black" points="992.56,-897.62 1003.1,-898.73 995.56,-891.29 992.56,-897.62"/>
</g>
<!-- flow_state_core&#45;&gt;flow_state_solvers -->
<g id="edge21" class="edge">
<title>flow_state_core&#45;&gt;flow_state_solvers</title><style>.edge>path:hover{stroke-width:8}</style>
<path fill="none" stroke="black" d="M817.47,-758.15C822.42,-754.68 827.05,-750.55 830.52,-745.74 871.94,-688.41 839.03,-655.9 866.52,-590.74 872.64,-576.25 881.71,-561.42 890.06,-549.24"/>
<polygon fill="blue" stroke="black" points="892.74,-551.51 895.65,-541.33 887.02,-547.47 892.74,-551.51"/>
</g>
<!-- flow_state_gas -->
<g id="node11" class="node">
<title>flow_state_gas</title><style>.edge>path:hover{stroke-width:8}</style>
<polygon fill="blue" stroke="black" points="825.14,-201.74 745.39,-201.74 745.39,-165.74 825.14,-165.74 825.14,-201.74"/>
<text xml:space="preserve" text-anchor="middle" x="785.27" y="-179.86" font-family="Helvetica,sans-Serif" font-size="10.00" fill="white">flow_state.gas</text>
</g>
<!-- flow_state_gas&#45;&gt;flow_state_solvers -->
<g id="edge22" class="edge">
<title>flow_state_gas&#45;&gt;flow_state_solvers</title><style>.edge>path:hover{stroke-width:8}</style>
<path fill="none" stroke="black" d="M792.96,-201.91C813.4,-257.39 875.11,-424.9 900.1,-492.74"/>
<polygon fill="blue" stroke="black" points="896.79,-493.88 903.53,-502.05 903.36,-491.46 896.79,-493.88"/>
</g>
<!-- flow_state_gas_equilibrium -->
<g id="node12" class="node">
<title>flow_state_gas_equilibrium</title><style>.edge>path:hover{stroke-width:8}</style>
<ellipse fill="#c24747" stroke="black" cx="658.76" cy="-260.74" rx="45.25" ry="29.52"/>
<text xml:space="preserve" text-anchor="middle" x="658.76" y="-268.11" font-family="Helvetica,sans-Serif" font-size="10.00" fill="#ffffff">flow_state.</text>
<text xml:space="preserve" text-anchor="middle" x="658.76" y="-256.86" font-family="Helvetica,sans-Serif" font-size="10.00" fill="#ffffff">gas.</text>
<text xml:space="preserve" text-anchor="middle" x="658.76" y="-245.61" font-family="Helvetica,sans-Serif" font-size="10.00" fill="#ffffff">equilibrium</text>
</g>
<!-- flow_state_gas_equilibrium&#45;&gt;flow_state_gas -->
<g id="edge23" class="edge">
<title>flow_state_gas_equilibrium&#45;&gt;flow_state_gas</title><style>.edge>path:hover{stroke-width:8}</style>
<path fill="none" stroke="black" d="M692.47,-240.5C708.61,-230.52 728.21,-218.41 745.14,-207.94"/>
<polygon fill="#c24747" stroke="black" points="746.8,-211.02 753.46,-202.79 743.12,-205.07 746.8,-211.02"/>
</g>
<!-- flow_state_gas_park -->
<g id="node13" class="node">
<title>flow_state_gas_park</title><style>.edge>path:hover{stroke-width:8}</style>
<ellipse fill="#c24747" stroke="black" cx="658.76" cy="-183.74" rx="45.25" ry="29.52"/>
<text xml:space="preserve" text-anchor="middle" x="658.76" y="-191.11" font-family="Helvetica,sans-Serif" font-size="10.00" fill="#ffffff">flow_state.</text>
<text xml:space="preserve" text-anchor="middle" x="658.76" y="-179.86" font-family="Helvetica,sans-Serif" font-size="10.00" fill="#ffffff">gas.</text>
<text xml:space="preserve" text-anchor="middle" x="658.76" y="-168.61" font-family="Helvetica,sans-Serif" font-size="10.00" fill="#ffffff">park</text>
</g>
<!-- flow_state_gas_park&#45;&gt;flow_state_gas -->
<g id="edge24" class="edge">
<title>flow_state_gas_park&#45;&gt;flow_state_gas</title><style>.edge>path:hover{stroke-width:8}</style>
<path fill="none" stroke="black" d="M704.36,-183.74C713.78,-183.74 723.8,-183.74 733.43,-183.74"/>
<polygon fill="#c24747" stroke="black" points="733.42,-187.24 743.42,-183.74 733.42,-180.24 733.42,-187.24"/>
</g>
<!-- flow_state_gas_perfect -->
<g id="node14" class="node">
<title>flow_state_gas_perfect</title><style>.edge>path:hover{stroke-width:8}</style>
<ellipse fill="#c24747" stroke="black" cx="658.76" cy="-106.74" rx="45.25" ry="29.52"/>
<text xml:space="preserve" text-anchor="middle" x="658.76" y="-114.11" font-family="Helvetica,sans-Serif" font-size="10.00" fill="#ffffff">flow_state.</text>
<text xml:space="preserve" text-anchor="middle" x="658.76" y="-102.86" font-family="Helvetica,sans-Serif" font-size="10.00" fill="#ffffff">gas.</text>
<text xml:space="preserve" text-anchor="middle" x="658.76" y="-91.61" font-family="Helvetica,sans-Serif" font-size="10.00" fill="#ffffff">perfect</text>
</g>
<!-- flow_state_gas_perfect&#45;&gt;flow_state_gas -->
<g id="edge25" class="edge">
<title>flow_state_gas_perfect&#45;&gt;flow_state_gas</title><style>.edge>path:hover{stroke-width:8}</style>
<path fill="none" stroke="black" d="M692.47,-126.97C708.61,-136.95 728.21,-149.06 745.14,-159.54"/>
<polygon fill="#c24747" stroke="black" points="743.12,-162.4 753.46,-164.69 746.8,-156.45 743.12,-162.4"/>
</g>
<!-- flow_state_io -->
<g id="node15" class="node">
<title>flow_state_io</title><style>.edge>path:hover{stroke-width:8}</style>
<polygon fill="blue" stroke="black" points="694.51,-798.74 623.01,-798.74 623.01,-762.74 694.51,-762.74 694.51,-798.74"/>
<text xml:space="preserve" text-anchor="middle" x="658.76" y="-776.86" font-family="Helvetica,sans-Serif" font-size="10.00" fill="white">flow_state.io</text>
</g>
<!-- flow_state_io&#45;&gt;flow_state -->
<g id="edge26" class="edge">
<title>flow_state_io&#45;&gt;flow_state</title><style>.edge>path:hover{stroke-width:8}</style>
<path fill="none" stroke="black" d="M912.78,-604.74C938.57,-591.92 969.96,-583.6 994.56,-578.52"/>
<polygon fill="blue" stroke="black" points="995.06,-581.99 1004.2,-576.63 993.71,-575.12 995.06,-581.99"/>
<path fill="none" stroke="black" d="M693.95,-762.34C697.55,-759.7 700.99,-756.82 704.01,-753.74 726.3,-730.96 717.12,-713.89 740.01,-691.74 785.89,-647.35 809.03,-651.46 866.52,-623.74 885.8,-614.44 891.61,-614.26 910.78,-604.74"/>
</g>
<!-- flow_state_io&#45;&gt;flow_state_cli -->
<g id="edge27" class="edge">
<title>flow_state_io&#45;&gt;flow_state_cli</title><style>.edge>path:hover{stroke-width:8}</style>
<path fill="none" stroke="black" d="M694.68,-792.1C729.61,-801.74 784.6,-812.18 830.52,-799.74 899.91,-780.93 969.88,-732.14 1007.49,-702.89"/>
<polygon fill="blue" stroke="black" points="1009.47,-705.78 1015.15,-696.84 1005.13,-700.29 1009.47,-705.78"/>
</g>
<!-- flow_state_io&#45;&gt;flow_state_core -->
<g id="edge28" class="edge">
<title>flow_state_io&#45;&gt;flow_state_core</title><style>.edge>path:hover{stroke-width:8}</style>
<path fill="none" stroke="black" d="M694.77,-778.49C709.33,-777.55 726.37,-776.46 741.64,-775.47"/>
<polygon fill="blue" stroke="black" points="741.65,-778.98 751.4,-774.85 741.2,-772 741.65,-778.98"/>
</g>
<!-- flow_state_io_legacy_dat&#45;&gt;flow_state_io -->
<g id="edge29" class="edge">
<title>flow_state_io_legacy_dat&#45;&gt;flow_state_io</title><style>.edge>path:hover{stroke-width:8}</style>
<path fill="none" stroke="black" d="M1004.26,-869.44C982.81,-879.01 953.14,-890.07 924.23,-893.7"/>
<polygon fill="blue" stroke="black" points="923.93,-890.22 914.29,-894.6 924.56,-897.19 923.93,-890.22"/>
</g>
<!-- flow_state_io_print_summary&#45;&gt;flow_state_io -->
<g id="edge31" class="edge">
<title>flow_state_io_print_summary&#45;&gt;flow_state_io</title><style>.edge>path:hover{stroke-width:8}</style>
<path fill="none" stroke="black" d="M910.78,-894.74C818.14,-909.55 720.21,-834.86 679.4,-799.03"/>
<path fill="none" stroke="black" d="M1004.63,-814.97C1000.68,-817.85 996.73,-820.82 993.03,-823.74 958.88,-850.72 959.4,-881.41 923.83,-892.23"/>
<polygon fill="blue" stroke="black" points="923.23,-888.78 914.25,-894.4 924.78,-895.6 923.23,-888.78"/>
</g>
<!-- flow_state_io_read_config&#45;&gt;flow_state_cli -->
<g id="edge32" class="edge">
<title>flow_state_io_read_config&#45;&gt;flow_state_cli</title><style>.edge>path:hover{stroke-width:8}</style>
<path fill="none" stroke="black" d="M565.45,-676.34C620.1,-677.62 734.43,-681.4 830.52,-691.74 866.45,-695.6 874.72,-707.02 910.78,-704.74"/>
<path fill="none" stroke="black" d="M912.78,-704.74C937.91,-702.38 965.47,-697.04 988.12,-691.89"/>
<polygon fill="blue" stroke="black" points="988.73,-695.34 997.67,-689.66 987.14,-688.52 988.73,-695.34"/>
</g>
<!-- flow_state_io_read_config&#45;&gt;flow_state_io -->
<g id="edge33" class="edge">
<title>flow_state_io_read_config&#45;&gt;flow_state_io</title><style>.edge>path:hover{stroke-width:8}</style>
<path fill="none" stroke="black" d="M552.55,-696.94C568.14,-713.43 591.09,-736.35 613.5,-753.74 614.46,-754.48 615.45,-755.22 616.45,-755.96"/>
<polygon fill="blue" stroke="black" points="614.3,-758.72 624.51,-761.53 618.28,-752.97 614.3,-758.72"/>
</g>
<!-- flow_state_io_write_data&#45;&gt;flow_state_io -->
<g id="edge34" class="edge">
<title>flow_state_io_write_data&#45;&gt;flow_state_io</title><style>.edge>path:hover{stroke-width:8}</style>
<path fill="none" stroke="black" d="M1004.28,-905.25C982.45,-900.13 952.3,-894.57 923.95,-894.47"/>
<polygon fill="blue" stroke="black" points="924.21,-890.97 914.29,-894.7 924.37,-897.96 924.21,-890.97"/>
</g>
<!-- flow_state_isentropic -->
<g id="node20" class="node">
<title>flow_state_isentropic</title><style>.edge>path:hover{stroke-width:8}</style>
<ellipse fill="#ce3b3b" stroke="black" cx="785.27" cy="-98.74" rx="45.25" ry="21.57"/>
<text xml:space="preserve" text-anchor="middle" x="785.27" y="-100.49" font-family="Helvetica,sans-Serif" font-size="10.00" fill="#ffffff">flow_state.</text>
<text xml:space="preserve" text-anchor="middle" x="785.27" y="-89.24" font-family="Helvetica,sans-Serif" font-size="10.00" fill="#ffffff">isentropic</text>
</g>
<!-- flow_state_isentropic&#45;&gt;flow_state -->
<g id="edge35" class="edge">
<title>flow_state_isentropic&#45;&gt;flow_state</title><style>.edge>path:hover{stroke-width:8}</style>
<path fill="none" stroke="black" d="M813.9,-81.65C845.26,-63.3 894.21,-38.1 910.78,-48.74"/>
</g>
<!-- flow_state_isentropic&#45;&gt;flow_state_solvers -->
<g id="edge36" class="edge">
<title>flow_state_isentropic&#45;&gt;flow_state_solvers</title><style>.edge>path:hover{stroke-width:8}</style>
<path fill="none" stroke="black" d="M804.83,-118.51C813.84,-129.11 824.08,-142.83 830.52,-156.74 884.62,-273.42 903.06,-428.24 908.63,-492.18"/>
<polygon fill="#ce3b3b" stroke="black" points="905.12,-492.19 909.42,-501.87 912.09,-491.62 905.12,-492.19"/>
</g>
<!-- flow_state_math_utils -->
<g id="node21" class="node">
<title>flow_state_math_utils</title><style>.edge>path:hover{stroke-width:8}</style>
<polygon fill="blue" stroke="black" points="817.27,-568.74 753.27,-568.74 753.27,-532.74 817.27,-532.74 817.27,-568.74"/>
<text xml:space="preserve" text-anchor="middle" x="785.27" y="-552.49" font-family="Helvetica,sans-Serif" font-size="10.00" fill="white">flow_state.</text>
<text xml:space="preserve" text-anchor="middle" x="785.27" y="-541.24" font-family="Helvetica,sans-Serif" font-size="10.00" fill="white">math_utils</text>
</g>
<!-- flow_state_math_utils&#45;&gt;flow_state_solvers -->
<g id="edge37" class="edge">
<title>flow_state_math_utils&#45;&gt;flow_state_solvers</title><style>.edge>path:hover{stroke-width:8}</style>
<path fill="none" stroke="black" d="M817.69,-543.42C833.02,-539.85 851.7,-535.5 868.29,-531.63"/>
<polygon fill="blue" stroke="black" points="868.95,-535.07 877.9,-529.39 867.36,-528.25 868.95,-535.07"/>
</g>
<!-- flow_state_math_utils_bisection -->
<g id="node22" class="node">
<title>flow_state_math_utils_bisection</title><style>.edge>path:hover{stroke-width:8}</style>
<ellipse fill="#c24747" stroke="black" cx="658.76" cy="-590.74" rx="45.25" ry="29.52"/>
<text xml:space="preserve" text-anchor="middle" x="658.76" y="-598.11" font-family="Helvetica,sans-Serif" font-size="10.00" fill="#ffffff">flow_state.</text>
<text xml:space="preserve" text-anchor="middle" x="658.76" y="-586.86" font-family="Helvetica,sans-Serif" font-size="10.00" fill="#ffffff">math_utils.</text>
<text xml:space="preserve" text-anchor="middle" x="658.76" y="-575.61" font-family="Helvetica,sans-Serif" font-size="10.00" fill="#ffffff">bisection</text>
</g>
<!-- flow_state_math_utils_bisection&#45;&gt;flow_state_math_utils -->
<g id="edge38" class="edge">
<title>flow_state_math_utils_bisection&#45;&gt;flow_state_math_utils</title><style>.edge>path:hover{stroke-width:8}</style>
<path fill="none" stroke="black" d="M699.84,-577.86C713.42,-573.5 728.61,-568.62 742.32,-564.21"/>
<polygon fill="#c24747" stroke="black" points="743.06,-567.65 751.51,-561.26 740.92,-560.99 743.06,-567.65"/>
</g>
<!-- flow_state_solvers&#45;&gt;flow_state -->
<g id="edge39" class="edge">
<title>flow_state_solvers&#45;&gt;flow_state</title><style>.edge>path:hover{stroke-width:8}</style>
<path fill="none" stroke="black" d="M944.11,-534.48C959.74,-540.84 978.83,-548.61 995.53,-555.4"/>
<polygon fill="blue" stroke="black" points="994.11,-558.6 1004.69,-559.13 996.75,-552.12 994.11,-558.6"/>
</g>
<!-- flow_state_solvers&#45;&gt;flow_state_cli -->
<g id="edge40" class="edge">
<title>flow_state_solvers&#45;&gt;flow_state_cli</title><style>.edge>path:hover{stroke-width:8}</style>
<path fill="none" stroke="black" d="M927.12,-540.17C948.9,-568.18 990.42,-621.56 1015.32,-653.57"/>
<polygon fill="blue" stroke="black" points="1012.34,-655.44 1021.25,-661.19 1017.87,-651.15 1012.34,-655.44"/>
</g>
<!-- flow_state_transport -->
<g id="node24" class="node">
<title>flow_state_transport</title><style>.edge>path:hover{stroke-width:8}</style>
<polygon fill="blue" stroke="black" points="817.27,-452.74 753.27,-452.74 753.27,-416.74 817.27,-416.74 817.27,-452.74"/>
<text xml:space="preserve" text-anchor="middle" x="785.27" y="-436.49" font-family="Helvetica,sans-Serif" font-size="10.00" fill="white">flow_state.</text>
<text xml:space="preserve" text-anchor="middle" x="785.27" y="-425.24" font-family="Helvetica,sans-Serif" font-size="10.00" fill="white">transport</text>
</g>
<!-- flow_state_transport&#45;&gt;flow_state_solvers -->
<g id="edge41" class="edge">
<title>flow_state_transport&#45;&gt;flow_state_solvers</title><style>.edge>path:hover{stroke-width:8}</style>
<path fill="none" stroke="black" d="M816.98,-452.96C821.56,-455.82 826.2,-458.81 830.52,-461.74 846.6,-472.61 863.9,-485.4 878.31,-496.38"/>
<polygon fill="blue" stroke="black" points="876.06,-499.06 886.12,-502.36 880.32,-493.5 876.06,-499.06"/>
</g>
<!-- flow_state_transport_core -->
<g id="node25" class="node">
<title>flow_state_transport_core</title><style>.edge>path:hover{stroke-width:8}</style>
<ellipse fill="#ce3b3b" stroke="black" cx="532.25" cy="-530.74" rx="45.25" ry="29.52"/>
<text xml:space="preserve" text-anchor="middle" x="532.25" y="-538.11" font-family="Helvetica,sans-Serif" font-size="10.00" fill="#ffffff">flow_state.</text>
<text xml:space="preserve" text-anchor="middle" x="532.25" y="-526.86" font-family="Helvetica,sans-Serif" font-size="10.00" fill="#ffffff">transport.</text>
<text xml:space="preserve" text-anchor="middle" x="532.25" y="-515.61" font-family="Helvetica,sans-Serif" font-size="10.00" fill="#ffffff">core</text>
</g>
<!-- flow_state_transport_core&#45;&gt;flow_state_transport -->
<g id="edge42" class="edge">
<title>flow_state_transport_core&#45;&gt;flow_state_transport</title><style>.edge>path:hover{stroke-width:8}</style>
<path fill="none" stroke="black" d="M659.76,-532.74C678.84,-523.04 687.44,-527.28 704.01,-513.74 725.78,-495.94 719.57,-481.03 740.01,-461.74 741.24,-460.58 742.53,-459.44 743.85,-458.34"/>
<polygon fill="#ce3b3b" stroke="black" points="745.94,-461.15 751.86,-452.37 741.75,-455.54 745.94,-461.15"/>
<path fill="none" stroke="black" d="M575.26,-540.87C600.5,-544.74 632.51,-545.56 657.76,-532.74"/>
</g>
<!-- flow_state_transport_registry -->
<g id="node28" class="node">
<title>flow_state_transport_registry</title><style>.edge>path:hover{stroke-width:8}</style>
<polygon fill="blue" stroke="black" points="690.76,-504.61 626.76,-504.61 626.76,-462.86 690.76,-462.86 690.76,-504.61"/>
<text xml:space="preserve" text-anchor="middle" x="658.76" y="-491.11" font-family="Helvetica,sans-Serif" font-size="10.00" fill="white">flow_state.</text>
<text xml:space="preserve" text-anchor="middle" x="658.76" y="-479.86" font-family="Helvetica,sans-Serif" font-size="10.00" fill="white">transport.</text>
<text xml:space="preserve" text-anchor="middle" x="658.76" y="-468.61" font-family="Helvetica,sans-Serif" font-size="10.00" fill="white">registry</text>
</g>
<!-- flow_state_transport_core&#45;&gt;flow_state_transport_registry -->
<g id="edge43" class="edge">
<title>flow_state_transport_core&#45;&gt;flow_state_transport_registry</title><style>.edge>path:hover{stroke-width:8}</style>
<path fill="none" stroke="black" d="M571.96,-516.12C585.96,-510.84 601.81,-504.85 616.05,-499.48"/>
<polygon fill="#ce3b3b" stroke="black" points="617.03,-502.85 625.15,-496.04 614.56,-496.3 617.03,-502.85"/>
</g>
<!-- flow_state_transport_keyes -->
<g id="node26" class="node">
<title>flow_state_transport_keyes</title><style>.edge>path:hover{stroke-width:8}</style>
<ellipse fill="#ce3b3b" stroke="black" cx="532.25" cy="-453.74" rx="45.25" ry="29.52"/>
<text xml:space="preserve" text-anchor="middle" x="532.25" y="-461.11" font-family="Helvetica,sans-Serif" font-size="10.00" fill="#ffffff">flow_state.</text>
<text xml:space="preserve" text-anchor="middle" x="532.25" y="-449.86" font-family="Helvetica,sans-Serif" font-size="10.00" fill="#ffffff">transport.</text>
<text xml:space="preserve" text-anchor="middle" x="532.25" y="-438.61" font-family="Helvetica,sans-Serif" font-size="10.00" fill="#ffffff">keyes</text>
</g>
<!-- flow_state_transport_keyes&#45;&gt;flow_state_transport -->
<g id="edge44" class="edge">
<title>flow_state_transport_keyes&#45;&gt;flow_state_transport</title><style>.edge>path:hover{stroke-width:8}</style>
<path fill="none" stroke="black" d="M574.57,-442.63C598.72,-437.35 629.85,-432.6 657.76,-434.74"/>
</g>
<!-- flow_state_transport_keyes&#45;&gt;flow_state_transport_registry -->
<g id="edge45" class="edge">
<title>flow_state_transport_keyes&#45;&gt;flow_state_transport_registry</title><style>.edge>path:hover{stroke-width:8}</style>
<path fill="none" stroke="black" d="M575.06,-463.81C588.06,-466.94 602.4,-470.4 615.44,-473.54"/>
<polygon fill="#ce3b3b" stroke="black" points="614.49,-476.91 625.03,-475.85 616.13,-470.1 614.49,-476.91"/>
</g>
<!-- flow_state_transport_power_law -->
<g id="node27" class="node">
<title>flow_state_transport_power_law</title><style>.edge>path:hover{stroke-width:8}</style>
<ellipse fill="#ce3b3b" stroke="black" cx="532.25" cy="-376.74" rx="45.25" ry="29.52"/>
<text xml:space="preserve" text-anchor="middle" x="532.25" y="-384.11" font-family="Helvetica,sans-Serif" font-size="10.00" fill="#ffffff">flow_state.</text>
<text xml:space="preserve" text-anchor="middle" x="532.25" y="-372.86" font-family="Helvetica,sans-Serif" font-size="10.00" fill="#ffffff">transport.</text>
<text xml:space="preserve" text-anchor="middle" x="532.25" y="-361.61" font-family="Helvetica,sans-Serif" font-size="10.00" fill="#ffffff">power_law</text>
</g>
<!-- flow_state_transport_power_law&#45;&gt;flow_state_transport -->
<g id="edge46" class="edge">
<title>flow_state_transport_power_law&#45;&gt;flow_state_transport</title><style>.edge>path:hover{stroke-width:8}</style>
<path fill="none" stroke="black" d="M659.76,-434.74C686.99,-436.82 717.66,-436.85 741.75,-436.34"/>
<polygon fill="#ce3b3b" stroke="black" points="741.58,-439.85 751.49,-436.09 741.41,-432.85 741.58,-439.85"/>
<path fill="none" stroke="black" d="M563.73,-398.5C587.92,-413.84 623.28,-432.09 657.76,-434.74"/>
</g>
<!-- flow_state_transport_power_law&#45;&gt;flow_state_transport_registry -->
<g id="edge47" class="edge">
<title>flow_state_transport_power_law&#45;&gt;flow_state_transport_registry</title><style>.edge>path:hover{stroke-width:8}</style>
<path fill="none" stroke="black" d="M560.58,-399.85C566.22,-404.72 572.09,-409.86 577.5,-414.74 593.86,-429.46 596.86,-434.34 613.5,-448.74 616.09,-450.97 618.79,-453.25 621.53,-455.51"/>
<polygon fill="#ce3b3b" stroke="black" points="619.16,-458.09 629.13,-461.68 623.57,-452.66 619.16,-458.09"/>
</g>
<!-- flow_state_transport_registry&#45;&gt;flow_state_transport -->
<g id="edge48" class="edge">
<title>flow_state_transport_registry&#45;&gt;flow_state_transport</title><style>.edge>path:hover{stroke-width:8}</style>
<path fill="none" stroke="black" d="M691.18,-471.37C706.66,-465.28 725.55,-457.84 742.25,-451.27"/>
<polygon fill="blue" stroke="black" points="743.43,-454.57 751.45,-447.65 740.86,-448.06 743.43,-454.57"/>
</g>
<!-- flow_state_transport_Sutherland -->
<g id="node29" class="node">
<title>flow_state_transport_Sutherland</title><style>.edge>path:hover{stroke-width:8}</style>
<ellipse fill="#b65353" stroke="black" cx="658.76" cy="-376.74" rx="45.25" ry="29.52"/>
<text xml:space="preserve" text-anchor="middle" x="658.76" y="-384.11" font-family="Helvetica,sans-Serif" font-size="10.00" fill="#ffffff">flow_state.</text>
<text xml:space="preserve" text-anchor="middle" x="658.76" y="-372.86" font-family="Helvetica,sans-Serif" font-size="10.00" fill="#ffffff">transport.</text>
<text xml:space="preserve" text-anchor="middle" x="658.76" y="-361.61" font-family="Helvetica,sans-Serif" font-size="10.00" fill="#ffffff">Sutherland</text>
</g>
<!-- flow_state_transport_Sutherland&#45;&gt;flow_state_solvers -->
<g id="edge49" class="edge">
<title>flow_state_transport_Sutherland&#45;&gt;flow_state_solvers</title><style>.edge>path:hover{stroke-width:8}</style>
<path fill="none" stroke="black" d="M692.98,-357.13C718.96,-344.53 755.39,-333.03 784.27,-347.74"/>
</g>
<!-- flow_state_transport_sutherland -->
<g id="node30" class="node">
<title>flow_state_transport_sutherland</title><style>.edge>path:hover{stroke-width:8}</style>
<ellipse fill="#ce3b3b" stroke="black" cx="532.25" cy="-607.74" rx="45.25" ry="29.52"/>
<text xml:space="preserve" text-anchor="middle" x="532.25" y="-615.11" font-family="Helvetica,sans-Serif" font-size="10.00" fill="#ffffff">flow_state.</text>
<text xml:space="preserve" text-anchor="middle" x="532.25" y="-603.86" font-family="Helvetica,sans-Serif" font-size="10.00" fill="#ffffff">transport.</text>
<text xml:space="preserve" text-anchor="middle" x="532.25" y="-592.61" font-family="Helvetica,sans-Serif" font-size="10.00" fill="#ffffff">sutherland</text>
</g>
<!-- flow_state_transport_sutherland&#45;&gt;flow_state_transport -->
<g id="edge50" class="edge">
<title>flow_state_transport_sutherland&#45;&gt;flow_state_transport</title><style>.edge>path:hover{stroke-width:8}</style>
<path fill="none" stroke="black" d="M562.42,-585.23C577.25,-574.35 595.83,-561.56 613.5,-551.74 632.21,-541.33 638.68,-542.43 657.76,-532.74"/>
</g>
<!-- flow_state_transport_sutherland&#45;&gt;flow_state_transport_registry -->
<g id="edge51" class="edge">
<title>flow_state_transport_sutherland&#45;&gt;flow_state_transport_registry</title><style>.edge>path:hover{stroke-width:8}</style>
<path fill="none" stroke="black" d="M561.83,-585.01C567.27,-580.2 572.74,-574.98 577.5,-569.74 596.17,-549.21 594.43,-538.88 613.5,-518.74 615.65,-516.47 617.95,-514.22 620.33,-512.03"/>
<polygon fill="#ce3b3b" stroke="black" points="622.23,-515.01 627.48,-505.81 617.64,-509.73 622.23,-515.01"/>
</g>
<!-- flow_state_turbulence -->
<g id="node31" class="node">
<title>flow_state_turbulence</title><style>.edge>path:hover{stroke-width:8}</style>
<ellipse fill="#ce3b3b" stroke="black" cx="658.76" cy="-722.74" rx="45.25" ry="21.57"/>
<text xml:space="preserve" text-anchor="middle" x="658.76" y="-724.49" font-family="Helvetica,sans-Serif" font-size="10.00" fill="#ffffff">flow_state.</text>
<text xml:space="preserve" text-anchor="middle" x="658.76" y="-713.24" font-family="Helvetica,sans-Serif" font-size="10.00" fill="#ffffff">turbulence</text>
</g>
<!-- flow_state_turbulence&#45;&gt;flow_state_core -->
<g id="edge52" class="edge">
<title>flow_state_turbulence&#45;&gt;flow_state_core</title><style>.edge>path:hover{stroke-width:8}</style>
<path fill="none" stroke="black" d="M694.11,-736.53C709.08,-742.54 726.77,-749.65 742.5,-755.96"/>
<polygon fill="#ce3b3b" stroke="black" points="741.02,-759.14 751.61,-759.62 743.63,-752.64 741.02,-759.14"/>
</g>
<!-- flow_state_turbulence&#45;&gt;flow_state_solvers -->
<g id="edge53" class="edge">
<title>flow_state_turbulence&#45;&gt;flow_state_solvers</title><style>.edge>path:hover{stroke-width:8}</style>
<path fill="none" stroke="black" d="M671.96,-702.03C686.02,-679.6 710.96,-643.93 740.01,-620.74 774.82,-592.95 792.02,-600.11 830.52,-577.74 846.4,-568.51 863.17,-557.1 877.26,-546.98"/>
<polygon fill="#ce3b3b" stroke="black" points="879.28,-549.84 885.31,-541.12 875.16,-544.18 879.28,-549.84"/>
</g>
<!-- flow_state_units -->
<g id="node32" class="node">
<title>flow_state_units</title><style>.edge>path:hover{stroke-width:8}</style>
<ellipse fill="#c24747" stroke="black" cx="785.27" cy="-492.74" rx="45.25" ry="21.57"/>
<text xml:space="preserve" text-anchor="middle" x="785.27" y="-494.49" font-family="Helvetica,sans-Serif" font-size="10.00" fill="#ffffff">flow_state.</text>
<text xml:space="preserve" text-anchor="middle" x="785.27" y="-483.24" font-family="Helvetica,sans-Serif" font-size="10.00" fill="#ffffff">units</text>
</g>
<!-- flow_state_units&#45;&gt;flow_state_solvers -->
<g id="edge54" class="edge">
<title>flow_state_units&#45;&gt;flow_state_solvers</title><style>.edge>path:hover{stroke-width:8}</style>
<path fill="none" stroke="black" d="M826.35,-502.07C839.79,-505.2 854.82,-508.7 868.43,-511.87"/>
<polygon fill="#c24747" stroke="black" points="867.45,-515.24 877.98,-514.1 869.04,-508.42 867.45,-515.24"/>
</g>
<!-- tomli_w -->
<g id="node33" class="node">
<title>tomli_w</title><style>.edge>path:hover{stroke-width:8}</style>
<polygon fill="#40c040" stroke="black" points="685.76,-950.74 682.76,-954.74 661.76,-954.74 658.76,-950.74 631.76,-950.74 631.76,-914.74 685.76,-914.74 685.76,-950.74"/>
<text xml:space="preserve" text-anchor="middle" x="658.76" y="-928.86" font-family="Helvetica,sans-Serif" font-size="10.00" fill="#000000">tomli_w</text>
</g>
<!-- tomli_w&#45;&gt;flow_state_io_write_data -->
<g id="edge55" class="edge">
<title>tomli_w&#45;&gt;flow_state_io_write_data</title><style>.edge>path:hover{stroke-width:8}</style>
<path fill="none" stroke="black" d="M686.19,-931.4C750.33,-928.16 914.69,-919.85 992.97,-915.89"/>
<polygon fill="#40c040" stroke="black" points="993,-919.4 1002.81,-915.4 992.65,-912.41 993,-919.4"/>
</g>
<!-- typer -->
<g id="node34" class="node">
<title>typer</title><style>.edge>path:hover{stroke-width:8}</style>
<polygon fill="#4040c0" stroke="black" points="812.27,-736.74 809.27,-740.74 788.27,-740.74 785.27,-736.74 758.27,-736.74 758.27,-700.74 812.27,-700.74 812.27,-736.74"/>
<text xml:space="preserve" text-anchor="middle" x="785.27" y="-714.86" font-family="Helvetica,sans-Serif" font-size="10.00" fill="#ffffff">typer</text>
</g>
<!-- typer&#45;&gt;flow_state_cli -->
<g id="edge56" class="edge">
<title>typer&#45;&gt;flow_state_cli</title><style>.edge>path:hover{stroke-width:8}</style>
<path fill="none" stroke="black" d="M812.44,-715.04C837.59,-711.67 876.7,-706.89 910.78,-704.74"/>
</g>
</g>
</svg>
